<?xml version="1.0" standalone="no"?>
<!DOCTYPE svg PUBLIC "-//W3C//DTD SVG 1.1//EN" "http://www.w3.org/Graphics/SVG/1.1/DTD/svg11.dtd" >
<svg xmlns="http://www.w3.org/2000/svg">
<metadata>
This is a custom SVG webfont generated by Font Squirrel.
Copyright   : Copyright c 2010 by Anton Koovit
Designer    : Anton Koovit
Foundry     : Anton Koovit
Foundry URL : httpwwwkorkorkcom
</metadata>
<defs>
<font id="webfontnP4ftP2h" horiz-adv-x="1243" >
<font-face units-per-em="2048" ascent="1638" descent="-410" />
<missing-glyph horiz-adv-x="409" />
<glyph unicode=" "  horiz-adv-x="409" />
<glyph unicode="&#x09;" horiz-adv-x="409" />
<glyph unicode="&#xa0;" horiz-adv-x="409" />
<glyph unicode="!" horiz-adv-x="694" d="M139 145q0 35 13 70q10 29 38 57q23 23 56 37q31 14 71 15q37 0 68 -15q37 -16 57.5 -36.5t36.5 -57.5q14 -31 14.5 -70t-14.5 -69q-16 -37 -36.5 -57.5t-57.5 -36.5q-31 -14 -68 -15q-41 0 -71 15q-33 14 -56 36q-29 29 -38 58q-13 34 -13 69zM139 1577h369l-41 -1067 h-287z" />
<glyph unicode="&#x22;" horiz-adv-x="649" d="M41 1577h266l-18 -518h-207zM375 1577h260l-47 -518h-199z" />
<glyph unicode="#" horiz-adv-x="1536" d="M8 281l64 280h149l70 354h-189l64 283h180l64 318h331l-61 -318h326l61 318h332l-62 -318h160l-63 -283h-152l-70 -354h189l-64 -280h-180l-53 -281h-334l55 281h-321l-55 -281h-338l55 281h-158zM557 561h324l67 354h-323z" />
<glyph unicode="$" d="M102 240v301h342q0 -35 13 -66q10 -27 35 -51q20 -20 55 -32.5t78 -12.5q53 0 79.5 20.5t26.5 55.5q0 16 -10 30q-6 8 -27 25q-10 8 -35 18q-18 8 -41 15l-186 57q-74 25 -106 43q-53 31 -86 66q-35 39 -58 92q-23 55 -22 125q0 68 22 125q23 59 62 98t96 68 q51 27 121 38v324h332v-342q61 -23 77 -31q39 -20 62 -39h180v-301h-342q0 35 -12 64q-12 27 -33 45q-25 20 -49.5 30.5t-69.5 10.5q-49 0 -75.5 -18.5t-26.5 -49.5q0 -20 10 -30q18 -18 30.5 -26.5t45.5 -21.5l55 -18l178 -57q137 -43 199 -117q63 -76 63 -197 q0 -66 -20 -119q-20 -51 -59 -100q-33 -43 -93 -78q-53 -33 -120 -51v-321h-332v321q-41 12 -101 43q-39 20 -81 64h-177z" />
<glyph unicode="%" horiz-adv-x="1832" d="M211 1167q0 72 28.5 141.5t78 119t120.5 79.5q66 29 152 29q88 0 153 -29q70 -31 119 -80t78 -118.5t29 -141.5q0 -76 -27 -141t-78 -117q-49 -49 -118.5 -79.5t-155.5 -30.5t-155.5 30.5t-119.5 79.5q-51 51 -77.5 116.5t-26.5 141.5zM344 0l1026 1540h266l-1026 -1540 h-266zM451 1167q0 -27 10 -53q8 -23 31 -45q18 -18 43 -31q20 -10 55 -10t55 10q25 12 43.5 30.5t30.5 43.5q10 20 10 55t-10 56q-14 29 -30.5 45t-43.5 26.5t-55.5 10.5t-55 -10.5t-42.5 -26.5q-23 -23 -31 -45q-10 -27 -10 -56zM1024 379q0 72 28.5 141.5t78 118.5 t120.5 80q66 29 152 29q88 0 153 -29q70 -31 119 -80t78 -118.5t29 -141.5q0 -76 -26.5 -141.5t-78.5 -116.5q-49 -49 -118 -80q-72 -31 -156 -31q-90 0 -156 29q-70 31 -119 80t-77 119q-27 65 -27 141zM1264 379q0 -27 10 -53q8 -23 31 -45q14 -14 43 -29q25 -12 55 -12 q29 0 55 10q20 8 43 31q18 18 31 43q10 20 10 55t-10 55q-12 25 -31 43q-20 20 -43 29q-27 10 -55.5 10t-54.5 -10q-23 -8 -43 -29q-23 -23 -31 -43q-10 -26 -10 -55z" />
<glyph unicode="&#x26;" horiz-adv-x="1335" d="M90 455q0 125 60 225q57 96 163 172l2 2l-18 20q-61 66 -96 144q-33 74 -33 172q0 84 33 156q35 78 92 131q61 57 137 90q78 33 170 32q94 0 176 -34q78 -33 135 -90q53 -53 86 -132q31 -74 31 -151q0 -59 -14 -109q-12 -43 -41 -96q-23 -41 -60 -82q-35 -37 -71 -65 q-8 -6 -16.5 -11.5t-16.5 -11.5l-33 -22l164 -162q12 35 23 86q16 72 16 78h299q-6 -98 -33 -197q-28 -101 -74 -197l256 -249l-231 -203l-201 207q-88 -82 -186 -125q-106 -47 -231 -47q-101 0 -191 37q-98 41 -156 98q-72 72 -104 149q-37 87 -37 185zM406 461 q0 -27 14 -64q14 -35 34.5 -55t57.5 -37q31 -14 74 -14q61 0 112 22q53 23 90 58l-262 268q-28 -18 -49 -37q-29 -25 -39 -39q-16 -23 -24 -45t-8 -57zM457 1192q0 -43 14 -78t41 -61l55 -56q47 25 60 33q6 2 47 33q33 23 45 55q14 37 14 74q0 25 -10 51q-8 23 -28.5 43.5 t-43.5 28.5q-27 10 -51 10q-31 0 -57.5 -10t-44.5 -29q-25 -25 -31 -41q-10 -26 -10 -53z" />
<glyph unicode="'" horiz-adv-x="339" d="M37 1059v518l287 16l-68 -534h-219z" />
<glyph unicode="(" horiz-adv-x="720" d="M109 647q0 307 104 594q106 293 301 528l246 -172q-74 -96 -137 -215q-59 -109 -103 -233q-41 -119 -63 -248q-23 -131 -23 -254q0 -125 23 -256q23 -129 63 -248q45 -131 103 -235q70 -127 135 -215l-248 -160q-98 120 -172 252q-72 129 -125 272q-53 145 -78 289 q-26 160 -26 301z" />
<glyph unicode=")" horiz-adv-x="720" d="M6 -295q78 102 137 213q57 104 103 236q41 119 63 247q23 131 23 254q0 119 -23 254q-23 131 -63 250q-45 131 -103 236q-70 127 -135 215l248 159q197 -240 299 -524t102 -590q0 -313 -102 -594q-104 -289 -303 -528z" />
<glyph unicode="*" horiz-adv-x="1007" d="M61 1204l78 238l240 -78v252h250v-252l239 78l78 -238l-241 -78l149 -204l-203 -148l-147 207l-148 -207l-202 148l147 204z" />
<glyph unicode="+" horiz-adv-x="1228" d="M102 436v297h363v363h297v-363h364v-297h-364v-364h-297v364h-363z" />
<glyph unicode="," horiz-adv-x="530" d="M20 -287l185 570l305 -107l-285 -541z" />
<glyph unicode="-" horiz-adv-x="768" d="M61 449v274h627v-274h-627z" />
<glyph unicode="." horiz-adv-x="528" d="M70 162q0 45 14 76q16 37 41 61q29 29 63.5 43t75.5 14t76 -14q31 -12 61 -43q27 -27 41 -61q16 -39 16.5 -76t-16.5 -76q-14 -35 -41 -61q-29 -29 -61 -43q-31 -14 -76 -15q-41 0 -76 15q-29 12 -63 43q-25 23 -41 61q-14 35 -14 76z" />
<glyph unicode="/" horiz-adv-x="806" d="M49 0l584 1556h256l-578 -1556h-262z" />
<glyph unicode="0" horiz-adv-x="1294" d="M82 754q0 160 30.5 301t100.5 248q72 109 184 170q114 61 277 61q162 0 274 -61q111 -59 182.5 -166t102.5 -246q31 -141 31 -299q0 -166 -33 -303q-35 -145 -103 -246q-71 -104 -184 -166q-113 -61 -272.5 -61t-272 59t-182.5 162q-68 100 -102 244q-33 137 -33 303z M406 762q0 -111 8 -187q10 -88 37 -149q28 -61 79 -98q49 -35 141.5 -35t141.5 35q55 39 82 98q25 55 35 149q8 76 8 187q0 109 -8 184q-10 90 -35 150q-27 59 -80 98q-52 37 -141 37t-142 -37q-57 -41 -81 -98q-29 -66 -37 -150q-8 -75 -8 -184z" />
<glyph unicode="1" horiz-adv-x="813" d="M41 926v348l418 246l145 -2v-1244h160v-274h-649v274h159v791z" />
<glyph unicode="2" horiz-adv-x="1177" d="M119 1044q0 121 39 211q39 88 108 156q63 61 160 96q90 33 197 33q98 0 188 -31q92 -33 158 -88q72 -61 108 -141q41 -88 41 -197q0 -89 -37 -165q-35 -74 -98 -144l-432 -467h565v-307h-989v260l524 557q66 61 105 131q37 63 37 135q0 31 -13 58q-14 33 -32 51 q-23 23 -56 35q-39 14 -74 14q-47 0 -85.5 -16.5t-61.5 -40.5q-25 -29 -37 -64q-14 -43 -14 -76h-301z" />
<glyph unicode="3" horiz-adv-x="1085" d="M16 487h314q6 -106 61 -155t150 -49q45 0 80 14q41 16 65 39q33 29 45 57q16 37 17 72q0 43 -15 74q-18 39 -41 59q-27 25 -65 39q-37 14 -88 14h-140v273h142q45 0 77 12q37 14 60 33q23 20 37 51q12 29 12 63q0 23 -14 60q-10 25 -39 53.5t-60 40.5q-35 14 -79 14 q-35 0 -70 -12q-33 -12 -59 -35q-29 -25 -41 -47q-14 -27 -15 -94l-311 2q0 94 37 184t100 156q63 68 156 106q90 39 203 39q106 0 198 -36.5t160 -98.5q63 -57 106 -143q39 -78 39 -170q0 -94 -41 -176q-39 -78 -108 -129q41 -25 67.5 -53.5t53.5 -75.5q25 -43 37 -95 q14 -61 14 -106q0 -100 -39 -186q-37 -84 -111 -154q-68 -63 -168 -107q-92 -39 -206 -38q-109 0 -195 32q-94 37 -159.5 92.5t-108.5 137.5q-43 80 -49 133q-9 69 -9 110z" />
<glyph unicode="4" horiz-adv-x="1230" d="M10 414v256l539 846h334l-531 -848h320v293l313 4v-297h211v-254h-211v-140h193v-274h-650v274h144v140h-662z" />
<glyph unicode="5" horiz-adv-x="1204" d="M111 377l309 84q6 -47 24 -84q18 -39 48 -64q23 -20 67 -39q35 -14 80 -14q49 0 88 19q40 18 67.5 48.5t43.5 73.5q16 45 16 91q0 37 -16 79q-14 39 -45 70q-29 29 -72 47.5t-94 18.5q-66 0 -113 -13q-43 -12 -96 -35l-271 50v807h963v-306h-674v-284q51 20 103 30 q55 12 120 13q100 0 193 -31q86 -29 162 -94q70 -61 110 -152q41 -92 41 -207q0 -131 -45 -223q-49 -100 -119 -162q-74 -63 -170 -98q-92 -33 -192 -33t-186 25q-82 23 -156 78q-72 53 -119 127q-49 77 -67 178z" />
<glyph unicode="6" horiz-adv-x="1161" d="M66 485q0 43 10 95q10 53 26 90q25 57 39 86l47 84l375 678h350l-309 -541q29 4 53 0q33 -4 50 -8q88 -16 159 -58q70 -41 129 -106q55 -61 86 -141t31 -168q0 -113 -41 -201q-43 -94 -115 -162q-68 -63 -168 -106q-92 -39 -202 -39q-109 0 -201 39q-100 43 -166 104 q-70 68 -113 158q-40 87 -40 196zM360 489q0 -35 13 -71q10 -31 43 -68q29 -31 69 -49q47 -20 103 -20q45 0 82 14q39 14 71.5 40.5t53.5 63.5q20 39 20 88q0 47 -18 84q-18 35 -52 66q-31 28 -73 43q-41 14 -90 14q-59 0 -110.5 -22.5t-82.5 -65.5q-8 -16 -20 -53 q-9 -25 -9 -64z" />
<glyph unicode="7" horiz-adv-x="1189" d="M41 1032v484h1108v-226l-240 -499l-237 -517h98v-274h-541v274h107l104 240l107 242l106 231l99 217h-424v-172h-287z" />
<glyph unicode="8" horiz-adv-x="1179" d="M113 457q0 104 51 194q49 86 135 148q-72 61 -109 133q-41 78 -40 160q0 96 38 176q41 86 105 143q63 59 156 96q89 37 190 37q102 0 192 -37q92 -37 156 -96q66 -59 107 -141q39 -78 39 -172q0 -88 -41 -166q-41 -80 -109 -137q86 -63 133 -146q49 -86 49 -188 q0 -94 -41 -187q-39 -88 -110 -155q-68 -63 -168 -107q-92 -39 -207 -39q-74 0 -141 19q-74 20 -127 51q-63 37 -107 80q-46 46 -80 98q-35 55 -53 115q-18 62 -18 121zM403 465q0 -41 19 -78q18 -39 49 -65q29 -27 76 -43q45 -16 92 -16.5t92 16.5q43 15 74 43q31 27 49 65 q18 37 18 78q0 39 -18 76q-16 31 -49 61q-31 28 -74 43q-45 16 -92 16.5t-92 -16.5q-47 -16 -76 -43q-33 -31 -49 -61q-19 -37 -19 -76zM440 1081q0 -37 15 -65q16 -33 43 -53q35 -27 63 -37q37 -12 78 -12.5t78 12.5q29 10 63 37q27 20 43.5 53t16.5 65.5t-17 65.5 q-15 31 -43 55q-27 23 -63 39q-35 14 -78 14t-78 -14q-37 -16 -63 -39q-28 -25 -43 -55q-15 -29 -15 -66z" />
<glyph unicode="9" horiz-adv-x="1150" d="M106 1020q0 115 41 203q43 94 113 159.5t166 106.5q92 39 205 39q109 0 200 -39q104 -43 168 -105q70 -68 113 -157q41 -88 41 -197q0 -45 -10 -96q-10 -49 -27 -88q-6 -14 -41 -84l-15 -30.5t-13.5 -26l-16.5 -29.5l-375 -678h-350l307 541q-29 -4 -53 0q-33 4 -47 8 q-84 14 -160 59q-74 43 -129 104.5t-86 141.5t-31 168zM403 1028q0 -49 19 -86q18 -35 49 -63q29 -27 76 -43q41 -14 90 -15q59 0 106 21q49 22 80 61q10 16 23 58q10 35 10 65q0 29 -14 72q-12 35 -41 67q-31 35 -70 52q-43 18 -100 18q-45 0 -82 -14q-45 -16 -74 -41 q-31 -25 -51.5 -64t-20.5 -88z" />
<glyph unicode=":" horiz-adv-x="538" d="M72 145q0 31 14 70q12 33 37 57q20 20 57 37q31 14 70 14.5t67 -14.5q41 -20 58 -37q20 -20 37 -57q14 -31 14 -70t-14 -69q-16 -37 -37 -58q-16 -16 -58 -36q-29 -14 -67.5 -14.5t-69.5 14.5q-37 16 -57 36q-25 25 -37 58q-14 38 -14 69zM72 907q0 31 14 70q10 29 37 55 q25 25 57 39q31 14 70 14t67 -14q37 -18 58 -39q23 -20 37 -55q14 -31 14 -70t-14 -69q-16 -37 -37 -58q-16 -16 -58 -37q-29 -14 -67.5 -14t-69.5 14q-37 16 -57 37q-25 25 -37 58q-14 38 -14 69z" />
<glyph unicode=";" horiz-adv-x="538" d="M-61 -287l184 570l305 -107l-285 -541zM72 907q0 31 14 70q10 29 37 55q25 25 57 39q31 14 70 14t67 -14q37 -18 58 -39q23 -20 37 -55q14 -31 14 -70t-14 -69q-16 -37 -37 -58q-16 -16 -58 -37q-29 -14 -67.5 -14t-69.5 14q-37 16 -57 37q-25 25 -37 58q-14 38 -14 69z " />
<glyph unicode="&#x3c;" horiz-adv-x="866" d="M31 451v223l755 274v-256l-448 -135l448 -143v-250z" />
<glyph unicode="=" horiz-adv-x="993" d="M61 281v286h873v-286h-873zM61 711v286h873v-286h-873z" />
<glyph unicode="&#x3e;" horiz-adv-x="825" d="M41 164v250l448 143l-448 135v256l756 -274v-223z" />
<glyph unicode="?" horiz-adv-x="1191" d="M90 1118q2 111 39 191q37 82 100 137q59 51 150 80q82 27 188 26q92 0 178 -28q84 -29 144 -82q61 -55 98 -135q35 -76 35 -184.5t-49 -201t-154 -171.5q-63 -45 -88 -70q-34 -34 -55 -74q-23 -41 -31 -90q-8 -47 -8 -125h-313q0 88 2 123q4 63 8 94q4 29 20 74 q12 37 33 61q23 31 49 54q25 23 74 57q31 25 76 70q25 27 47 61q18 31 24 66q6 34 7 73q0 61 -29 97q-31 37 -80 36q-20 0 -57 -8q-25 -6 -47 -24q-16 -14 -31 -54q-12 -33 -12 -84zM301 145q0 31 14 70q12 33 37 57q20 23 56 37q31 14 71 15q39 0 68 -15q37 -18 55 -37 q25 -23 39 -57q14 -31 14 -70t-14 -69q-14 -35 -39 -58q-18 -18 -55 -36q-29 -14 -68 -15q-41 0 -71 15q-35 14 -56 36q-25 25 -37 58q-14 38 -14 69z" />
<glyph unicode="@" horiz-adv-x="2265" d="M188 494q0 135 33 254q31 111 98 229q57 100 149.5 192.5t193.5 149.5q104 59 229 94q127 35 254 35q137 0 256 -33q121 -33 229 -92q104 -57 195 -143q86 -83 147 -185q63 -104 96 -215q35 -117 35 -237q0 -100 -30 -201q-31 -102 -88 -180q-59 -82 -145.5 -131 t-199.5 -49q-78 0 -141 28q-61 29 -100 78q-55 -47 -129 -75.5t-140 -28.5q-109 0 -202 41q-98 43 -162 106q-68 68 -104 158q-39 94 -39 190q0 98 36 187q37 90 101 155q66 70 153 109q86 39 197 39q58 0 111 -13q66 -14 100 -30v30h287v-647q0 -43 16 -71q14 -27 51 -27 q49 0 80 31q35 35 51 77q20 57 27 107q6 57 6 115q0 88 -24 168q-27 84 -70 151q-53 80 -109 131q-72 63 -139 103q-77 43 -166 67q-82 23 -186 23q-95 0 -184 -25q-88 -25 -164 -69q-84 -51 -140 -109q-68 -72 -108 -139q-45 -76 -70 -164q-25 -89 -24 -184q0 -144 55 -271 q53 -123 147 -219q92 -94 217 -149q121 -53 271 -54q98 0 196 31q88 27 193 88l137 -227q-127 -76 -258 -115q-139 -41 -268 -41q-127 0 -254 35q-125 35 -229 94q-100 57 -193 150q-90 90 -150 194q-70 121 -98 228q-33 119 -33 256zM926 479q0 -43 16 -82t43 -65 q23 -23 66 -41q35 -14 79 -15q61 0 110.5 31t80.5 88v160q-10 23 -33 53q-14 20 -43 41q-20 16 -53 27q-31 10 -59 10q-41 0 -80 -16.5t-66 -42.5q-29 -29 -45 -68t-16 -80z" />
<glyph unicode="A" horiz-adv-x="1490" d="M27 0v274h112l414 1242h401l404 -1242h110v-274h-575v274h151l-67 218h-467l-68 -218h160v-274h-575zM590 748h305l-154 493z" />
<glyph unicode="B" horiz-adv-x="1384" d="M113 0v274h155v967h-155v277l739 -2q102 0 188 -37t147.5 -98.5t96.5 -145.5q35 -86 35 -178q0 -113 -39 -183q-41 -74 -109 -114q78 -51 119 -119q43 -71 43 -172q0 -106 -35 -188q-39 -90 -98 -150q-61 -61 -145 -96q-86 -35 -181 -35h-761zM600 274h252q33 0 55 15 q27 16 43 39q18 25 31 57q10 29 10 68q0 43 -10 69.5t-30.5 53t-45 39t-53.5 12.5h-252v-353zM600 901h238q31 0 53 14q29 18 43 37q20 27 30.5 53.5t10.5 61.5t-10 61q-14 35 -30.5 57.5t-43.5 39t-53 16.5h-238v-340z" />
<glyph unicode="C" horiz-adv-x="1552" d="M66 760q0 166 57 305q59 145 156 250q94 102 233 168q131 61 287 61q123 0 207 -30.5t186 -120.5h223v-338h-309q-57 84 -100 114q-41 31 -99 48q-49 14 -108 14q-86 0 -156 -37q-74 -39 -125 -102.5t-81.5 -149.5t-30.5 -182t30 -182q33 -90 80 -150q51 -63 125 -102 q72 -37 158 -37q55 0 112 20q45 16 95 51q43 31 73 74q39 53 51 86l322 -90q-33 -104 -90 -182q-61 -84 -145 -144q-88 -63 -191 -96q-109 -35 -227 -35q-104 0 -196.5 27t-176.5 80q-76 47 -147 123q-61 63 -112.5 159.5t-74.5 188.5q-26 111 -26 209z" />
<glyph unicode="D" horiz-adv-x="1466" d="M82 0v274h121v967h-121v275h582q109 0 200 -27q98 -29 178 -76t150 -117q57 -57 115 -153q49 -84 73 -180q27 -106 27 -202.5t-27 -203.5q-23 -90 -73 -180q-47 -84 -115 -153.5t-150 -119.5q-86 -51 -178 -77.5t-200 -26.5h-582zM535 274h127q84 0 153.5 37t124.5 105 q53 68 84 153q31 89 31 191q0 100 -31 188q-31 86 -84 154q-51 63 -125 102q-70 37 -153 37h-127v-967z" />
<glyph unicode="E" horiz-adv-x="1378" d="M113 0v274h159v940h-159v302h1206v-517h-326v215h-389v-299h301v-290h-301v-351h389v269h326v-543h-1206z" />
<glyph unicode="F" horiz-adv-x="1284" d="M113 0v274h157v938h-157v304h1173v-517h-325v213h-359v-319h311v-291h-311v-328h160v-274h-649z" />
<glyph unicode="G" horiz-adv-x="1634" d="M66 760q0 96 26 207q23 88 74 186q51 96 113 160q72 76 147 123q78 49 176 77.5t197 28.5q119 0 205 -31q84 -31 188 -118h223v-338h-309q-47 74 -86 102q-41 31 -88 53q-49 23 -133 23q-82 0 -156 -39t-125 -102q-49 -61 -82 -152q-31 -86 -30 -180q0 -92 26 -172 q29 -84 82 -148q57 -68 129 -100q80 -37 156 -37q102 0 184 63.5t115 168.5h-289v274h702v-809h-299v260q-59 -106 -120 -160q-55 -49 -134 -82q-74 -31 -200 -30q-51 0 -123 14q-53 10 -121 39q-49 20 -112.5 59t-102.5 78q-109 109 -172 260q-61 148 -61 322z" />
<glyph unicode="H" horiz-adv-x="1888" d="M113 0v274h157v967h-157v275h649v-275h-160v-315h684v315h-158v275h650v-275h-160v-967h160v-274h-650v274h158v388h-684v-388h160v-274h-649z" />
<glyph unicode="I" horiz-adv-x="808" d="M113 0v274h157v967h-157v275h649v-275h-160v-967h160v-274h-649z" />
<glyph unicode="J" horiz-adv-x="684" d="M10 -223q49 74 92 149q34 58 68 129q37 76 53 150v1007h-141v304h573v-304h-106v-1040q-23 -86 -64 -149q-39 -61 -82 -121q-39 -55 -114 -140z" />
<glyph unicode="K" horiz-adv-x="1654" d="M113 0v274h157v967h-157v275h649v-275h-160v-440l485 422v293h517v-295h-113l-506 -435l485 -489h123v-297h-503v297l-488 487v-510h160v-274h-649z" />
<glyph unicode="L" horiz-adv-x="1345" d="M113 0v274h157v967h-157v275h649v-275h-160v-967h330q14 0 26 7q8 4 20.5 20t16.5 27q6 16 6 26v203h324v-557h-1212z" />
<glyph unicode="M" horiz-adv-x="2344" d="M113 0v274h141v967h-141v275h624l447 -1094l415 1094h633v-275h-141v-967h139v-274h-567v274h104v873l-454 -1129h-281l-463 1098v-842h113v-274h-569z" />
<glyph unicode="N" horiz-adv-x="1697" d="M113 0v274h125v967h-123v275h458l627 -994v719h-129v275h576v-275h-123v-1241h-332l-631 981v-707h127v-274h-575z" />
<glyph unicode="O" horiz-adv-x="1619" d="M66 758q0 98 26 209q23 92 74 188t113 160q72 76 147 123q78 49 176 77.5t197 28.5q100 0 198.5 -28.5t176.5 -77.5q76 -47 147 -123q61 -63 112.5 -159.5t73.5 -188.5q27 -111 27 -209.5t-27 -208.5q-23 -88 -73 -187q-51 -96 -113 -159q-72 -76 -147 -123 q-84 -53 -176.5 -80t-198.5 -27q-104 0 -196.5 27t-176.5 80q-76 47 -147 123q-61 63 -113 159q-51 98 -74 187q-26 111 -26 209zM406 758q0 -96 30 -183q33 -90 80 -149q51 -63 125 -102q72 -37 158 -37t159 37q70 35 125 102q53 66 80 149q29 90 29 182.5t-29 182.5 q-27 84 -82 152q-51 63 -125 102q-72 37 -157.5 37t-157.5 -37q-74 -39 -125 -102q-45 -57 -80 -152q-30 -86 -30 -182z" />
<glyph unicode="P" horiz-adv-x="1398" d="M113 0v274h157v967h-157v275h700q117 0 215 -37q96 -37 168 -99q72 -63 113 -143q39 -78 39 -168q0 -106 -31 -199q-29 -88 -98 -159q-66 -70 -166 -109q-98 -39 -240 -39h-211v-289h139v-274h-628zM602 834h137q113 0 180.5 49t67.5 151q0 96 -63.5 151.5t-184.5 55.5 h-137v-407z" />
<glyph unicode="Q" horiz-adv-x="1632" d="M66 758q0 98 26 209q23 92 74 188t113 160q72 76 147 123q78 49 176 77.5t197 28.5q100 0 198.5 -28.5t176.5 -77.5q76 -47 147 -123q61 -63 112.5 -159.5t73.5 -188.5q27 -111 27 -209q0 -150 -45 -277q-45 -125 -129 -231.5t-193 -171.5q-117 -72 -243 -92 q20 -8 61 -28.5t62 -29.5q6 -2 19 -8t23.5 -10t18.5 -6q35 -10 63 -10q33 0 60 8q35 10 53 24q27 20 43 45t23 66l223 -111q-10 -80 -41 -133q-35 -59 -84 -100q-55 -45 -117 -66q-68 -23 -137 -22q-57 0 -118.5 22.5t-114.5 48.5l-105 50q-51 23 -86 22h-29h-24 q-16 0 -27 -2q-6 0 -33 -10l2 252q-129 25 -237 96q-104 70 -186 172q-84 106 -125 229q-45 136 -45 273zM406 758q0 -96 30 -183q33 -90 80 -149q51 -63 125 -102q72 -37 158 -37t159 37q70 35 125 102q53 66 80 149q29 90 29 182.5t-29 182.5q-27 84 -82 152 q-51 63 -125 102q-72 37 -157.5 37t-157.5 -37q-74 -39 -125 -102q-45 -57 -80 -152q-30 -86 -30 -182z" />
<glyph unicode="R" horiz-adv-x="1529" d="M113 0v274h157v967h-157v275h802q115 0 209 -35q86 -33 156 -95q61 -55 96 -135q33 -74 33 -161q0 -74 -16 -136q-12 -47 -50 -102q-31 -47 -75 -80q-43 -31 -107 -61q45 -20 90 -80q37 -47 60 -139l51 -197h125l2 -295h-440l-60 360q-8 61 -28 111q-18 45 -50 76 q-25 25 -75 43q-41 14 -105 14h-129v-330h139v-274h-628zM602 874h199q51 0 102 11q39 8 78 33q31 18 51 57q16 31 17 80q0 88 -63.5 137t-184.5 49h-199v-367z" />
<glyph unicode="S" d="M41 250v301h362v-62q0 -49 15 -83q16 -39 42.5 -66t74.5 -43q45 -16 102 -16q94 0 137 41q47 43 47 116q0 37 -16 64q-12 20 -43 43q-16 12 -57 28q-35 14 -64 23l-229 74q-74 25 -125 55q-63 37 -107 90q-47 57 -74 127q-29 76 -28 166q0 104 41 192q39 84 110 144 q68 55 172 88q92 29 217 29q96 0 173 -21q84 -23 141 -57q63 -39 106 -84q45 -47 66 -96h100v-302h-362v89q-6 35 -25 65q-20 33 -49 53q-35 25 -70 35q-47 14 -80 14q-41 0 -71 -8q-33 -8 -58 -24q-20 -12 -38 -43q-14 -23 -15 -62q0 -43 19 -71q14 -20 51 -43 q29 -16 67 -27q31 -8 72 -23l275 -92q55 -20 106 -55t88 -84q33 -45 57 -117q20 -61 21 -145q0 -106 -41 -201q-39 -92 -113 -156q-76 -66 -176 -102q-96 -35 -225 -35q-88 0 -164 19q-70 16 -141 57q-63 37 -113 88q-47 51 -76 117h-102z" />
<glyph unicode="T" horiz-adv-x="1429" d="M20 1055v461h1379v-461h-328v196h-209v-977h160v-274h-649v274h157v977h-184v-196h-326z" />
<glyph unicode="U" horiz-adv-x="1560" d="M51 1241v275h608v-275h-139v-629q0 -84 19 -145q16 -57 55 -98q33 -37 84 -56q49 -18 104 -18q61 0 107 14q49 16 84 53q37 39 53 97q18 61 18 153v629h-161v275h608v-275h-121v-590q0 -156 -47 -284q-47 -127 -125 -211q-76 -82 -190 -131q-104 -45 -232 -45 q-117 0 -229 45q-106 43 -187 129q-82 88 -127 204.5t-45 274.5v608h-137z" />
<glyph unicode="V" horiz-adv-x="1529" d="M20 1241v275h650v-275h-162l264 -860l262 860h-174v275h649v-275h-135l-405 -1241h-410l-393 1241h-146z" />
<glyph unicode="W" horiz-adv-x="2355" d="M20 1241v275h650v-275h-158l223 -817l269 1089h372l264 -1089l224 817h-176v275h649v-275h-137l-349 -1241h-432l-229 946l-234 -946h-428l-356 1241h-152z" />
<glyph unicode="X" horiz-adv-x="1576" d="M33 0v274h69l453 480l-465 487h-53v275h643v-275h-154l244 -258l244 258h-156v275h643v-275h-51l-461 -487l459 -480h49v-274h-643v274h154l-236 248l-231 -248h135v-274h-643z" />
<glyph unicode="Y" horiz-adv-x="1536" d="M47 1241v275h649v-275h-127l203 -348l215 348h-145v275h649v-275h-113l-450 -612v-355h184v-274h-676v274h168v359l-424 608h-133z" />
<glyph unicode="Z" horiz-adv-x="1288" d="M61 0v313l738 906h-410v-240h-326v537h1151v-314l-755 -905h428v235h325v-532h-1151z" />
<glyph unicode="[" horiz-adv-x="669" d="M82 -512v2124h547v-246h-223v-1630h223v-248h-547z" />
<glyph unicode="\" horiz-adv-x="776" d="M6 1384h236l571 -1677h-242z" />
<glyph unicode="]" horiz-adv-x="669" d="M43 -264h223v1630h-223v246h547v-2124h-547v248z" />
<glyph unicode="^" horiz-adv-x="1228" d="M51 723l418 790h301l406 -790h-297l-263 528l-274 -528h-291z" />
<glyph unicode="_" horiz-adv-x="1024" d="M0 -90h1024v-256h-1024v256z" />
<glyph unicode="`" horiz-adv-x="772" d="M168 1464v25h326l196 -311h-229z" />
<glyph unicode="a" horiz-adv-x="1280" d="M72 307q0 70 28.5 133.5t77.5 104.5q52 43 129 67q78 25 172 25q51 0 129 -8q59 -6 109 -19v33q0 41 -15 68q-16 29 -43 47q-27 16 -63 26q-33 8 -84 9q-95 0 -166 -19q-72 -18 -137 -53l-96 194q98 68 213 107q111 37 237 37q100 0 180 -21q82 -20 142 -71 q59 -49 92 -125q33 -74 33 -191v-377h139v-274h-432v55l-64 -37q-25 -14 -57 -24q-35 -12 -61 -14q-41 -4 -68 -5q-92 0 -166 25t-125 70q-49 43 -78 106q-26 59 -26 131zM354 319q0 -47 33 -77q35 -31 102.5 -31t128.5 22q53 20 99 58v131h-240q-23 0 -45 -6 q-14 -4 -39 -21q-18 -12 -28.5 -32.5t-10.5 -43.5z" />
<glyph unicode="b" horiz-adv-x="1304" d="M29 1282v274h452v-542q53 25 111 39q55 14 117 14q115 0 213 -43q100 -43 170 -117q70 -72 110 -174q41 -100 41 -209q0 -115 -39 -211q-40 -98 -110 -172t-170 -116q-98 -43 -215 -43q-61 0 -119 12q-49 10 -109 35v-29h-307v1282h-145zM481 365q27 -43 86 -78 q49 -29 119 -29q51 0 96 18q47 18 82 54q31 31 54 82q20 47 20 110q0 66 -20 113q-25 55 -54 84q-35 35 -80 53q-47 18 -96 19q-70 0 -119 -29q-51 -31 -88 -86v-311z" />
<glyph unicode="c" horiz-adv-x="1179" d="M72 530q0 119 41 213q45 102 114 172q76 76 174 115q94 37 203 37h17h20q71 0 141 -18q76 -20 152 -70h199v-301h-277q-41 53 -96 82q-43 23 -108 23q-8 0 -17 -1q-13 1 -24 1q-49 0 -81 -15q-51 -25 -81 -57q-39 -43 -56 -86q-18 -49 -18 -111q0 -57 20 -104 q23 -49 54 -84q27 -29 83 -56q45 -20 103 -24q39 2 86 20q37 14 67 39q29 23 52 55q25 37 34 58l275 -76q-20 -66 -59 -125q-49 -76 -107 -119q-74 -57 -158 -88q-94 -35 -209 -35q-117 0 -219 43q-98 41 -172 119q-74 76 -112 176q-41 104 -41 217z" />
<glyph unicode="d" horiz-adv-x="1398" d="M72 526q0 117 39 213q39 94 110 170q66 70 170 115q98 43 215 43q65 0 123 -12q49 -10 109 -35v262h-146v274h455v-1282h201v-274h-510v41q-63 -33 -111 -45q-59 -16 -115 -16q-119 0 -217 43q-104 45 -172 116q-70 72 -110 174q-41 100 -41 213zM379 522q0 -68 18 -110 q23 -51 55.5 -84t79.5 -52q43 -16 99 -20q66 4 119 35q55 33 88 84v305q-33 49 -90 82q-51 29 -117 29q-52 0 -99 -19q-45 -18 -79 -53q-33 -33 -56 -84q-18 -43 -18 -113z" />
<glyph unicode="e" horiz-adv-x="1185" d="M51 532q0 115 39 213q37 96 113 175q74 78 172 118q100 43 221 43q119 0 217 -41q92 -39 160 -112q63 -70 98 -168q37 -102 39 -207q4 -33 4 -49q0 -35 -2 -51h-764l4 -31q14 -51 37 -80q29 -35 64 -55q41 -23 79 -35q43 -12 89 -12t86 6q53 8 77.5 14t73.5 23 q37 12 74 26l110 -205q-80 -47 -104 -59q-49 -27 -96 -41q-66 -20 -103 -24q-55 -6 -125 -7q-131 0 -239 45q-111 45 -178 119q-72 78 -109 178q-37 102 -37 217zM358 664h433q-4 23 -21 63q-12 31 -35 53q-27 27 -59 37q-43 14 -88 14q-49 0 -96 -14q-37 -12 -66 -37 q-29 -27 -43 -53q-17 -32 -25 -63z" />
<glyph unicode="f" horiz-adv-x="813" d="M76 774v262h157v172q0 92 31 160t86 117q51 45 123 69q71 25 148 25q61 0 102 -8q39 -8 80 -23q35 -12 57 -26q4 -2 37 -29l-115 -211q-16 14 -53 27q-31 10 -70 10q-29 0 -51 -8t-41 -27q-16 -16 -26.5 -43t-10.5 -59v-146h189v-262h-189v-500h191v-274h-643v274h155 v500h-157z" />
<glyph unicode="g" horiz-adv-x="1294" d="M72 534.5q0 114.5 39 206.5q39 94 110 168q66 70 170 115q98 43 215 43q76 0 131 -14q68 -18 113 -39v22h301v-993q0 -139 -43 -227q-49 -100 -121 -158q-78 -61 -176 -92q-102 -31 -211 -31q-133 0 -250 37q-121 39 -207 100l125 222q70 -45 152 -70q80 -25 178 -25 q53 0 100 12.5t80 39t51 77.5q20 55 21 121v4q-49 -27 -113 -45q-51 -14 -114 -14q-117 0 -222 41q-98 39 -174 115q-78 78 -114 169q-41 101 -41 215.5zM379 535q0 -66 18 -109q23 -51 56 -84q35 -35 80 -53.5t100 -18.5q72 0 127 37q59 39 90 92l2 252q-33 61 -94.5 100.5 t-126.5 39.5q-45 0 -96.5 -20.5t-81.5 -51.5q-33 -33 -56 -82q-18 -39 -18 -102z" />
<glyph unicode="h" horiz-adv-x="1384" d="M57 0v274h160v1008h-160v274h467v-616q55 51 129 84q72 31 156 31q188 0 286.5 -104.5t98.5 -305.5v-371h152v-274h-463v575q0 88 -43 137.5t-111 49.5q-46 0 -98 -25q-49 -25 -107 -73v-390h152v-274h-619z" />
<glyph unicode="i" horiz-adv-x="788" d="M80 0v274h156v488h-156v274h465v-762h143v-274h-608zM219 1370q0 31 14 70q10 29 37 55q25 25 58 39q31 14 69 14q41 0 70 -14q33 -16 55 -39q23 -20 37 -55q14 -31 14 -70t-14 -70q-16 -37 -37 -57q-18 -18 -55 -37q-29 -14 -70 -14q-39 0 -69 14q-37 16 -58 37 q-25 25 -37 57q-14 39 -14 70z" />
<glyph unicode="j" horiz-adv-x="620" d="M51 762v274h455v-1054q0 -123 -29 -203q-31 -86 -86 -141.5t-139 -79.5q-90 -27 -191 -27l-4 227q74 4 107 58q35 57 35 145v801h-148zM182 1370q0 35 13 70q10 27 38 55q25 25 55.5 39t71.5 14q37 0 68 -14q35 -14 57 -39q25 -25 39.5 -55.5t14.5 -69.5t-15 -70 q-16 -35 -39 -57q-20 -20 -57 -37q-31 -14 -68 -14q-41 0 -71 14q-35 14 -56 37q-29 29 -38 57q-13 35 -13 70z" />
<glyph unicode="k" horiz-adv-x="1449" d="M59 0v274h160v1008h-160v274h467v-897h174l72 103v274h537v-274h-187l-192 -223l196 -238h172v-301h-280l-336 444h-156v-170h107v-274h-574z" />
<glyph unicode="l" horiz-adv-x="778" d="M59 0v274h160v1008h-160v274h467v-1282h160v-274h-627z" />
<glyph unicode="m" horiz-adv-x="2154" d="M80 0v274h153v488h-151v274h473v-90q57 45 145 80q80 31 164 31q121 0 203 -41q84 -43 133 -127q39 43 74 67q45 33 90 54q51 25 98 34q53 12 105 13q190 0 293 -105q102 -106 102 -307v-371h145v-274h-473v594q0 90 -45 137q-47 51 -127 51q-57 0 -104 -26 q-49 -28 -98 -92v-23v-23v-344h149v-274h-471v596q0 37 -14 76q-10 31 -35 57q-23 27 -55 39q-35 14 -70 14q-47 0 -102.5 -22.5t-104.5 -83.5v-402h168v-274h-645z" />
<glyph unicode="n" horiz-adv-x="1458" d="M80 0v274h151v488h-149v274h473v-92q61 49 145 82q74 29 168 29q187 0 289 -105q100 -102 100 -305v-371h148v-274h-473v596q0 90 -45 137q-46 49 -123 49q-49 0 -105 -22q-57 -23 -104 -86v-400h170v-274h-645z" />
<glyph unicode="o" d="M72 522q0 111 41 211.5t114.5 174t173.5 116.5q101 43 222 43q123 0 223 -43t174 -117q70 -70 113 -174q41 -100 41 -211q0 -117 -39 -213q-43 -104 -113 -174q-74 -74 -174 -117q-102 -43 -225 -43t-226 43q-104 45 -174 117q-74 76 -112 174q-39 96 -39 213zM371 522 q0 -61 20 -108q22 -49 55 -86q29 -31 80 -56q43 -20 97 -20q47 0 98 20q46 18 80 56q37 41 53 84q18 49 18 110q0 63 -18 112.5t-53 84.5t-80 53q-46 18 -98 19q-49 0 -97 -19q-45 -18 -80 -53q-33 -33 -55 -84q-20 -47 -20 -113z" />
<glyph unicode="p" horiz-adv-x="1366" d="M61 -197h170v959h-112v274h452v-14q43 18 99 33q49 12 102 12q113 0 211 -43q100 -43 170 -117q74 -76 113 -174q41 -100 41 -209q0 -115 -39 -211q-40 -98 -111 -172q-70 -74 -170 -116q-98 -43 -215 -43q-65 0 -123 12q-43 8 -110 37v-228h198v-274h-676v274zM539 373 q29 -49 88 -82t123 -33q52 0 98 18.5t80 55.5q31 35 53 84q20 47 20 106q0 57 -20 113q-18 49 -53 84t-80 53q-46 18 -98 19q-63 0 -117 -33q-61 -37 -94 -92v-293z" />
<glyph unicode="q" horiz-adv-x="1331" d="M61 528q0 113 39 209q40 98 111 172q68 72 168 115q98 43 217 43q63 0 119 -12q59 -12 106 -33v45h307v-1264h154v-274h-676v274h215v234q-55 -27 -108 -41q-59 -16 -111 -16q-121 0 -219 43q-100 43 -170 116q-76 78 -113 174q-39 98 -39 215zM367 524q0 -66 20 -112 q23 -51 55.5 -84t79.5 -52q46 -18 99 -18q61 0 114 29q51 27 86 78v321q-35 49 -90 78q-53 27 -113 27q-52 0 -98 -19q-45 -18 -80 -53q-29 -29 -53 -84q-20 -48 -20 -111z" />
<glyph unicode="r" horiz-adv-x="1107" d="M72 0v274h155v488h-153v274h461v-73q49 39 100 55q55 18 119 18q20 0 66 -1t71 -1h129v-375h-281v107q-43 0 -75 -6q-35 -6 -60 -19q-23 -12 -43 -34q-18 -20 -24 -58v-375h211v-274h-676z" />
<glyph unicode="s" horiz-adv-x="1101" d="M55 66v278h283v-6q0 -31 18 -51q16 -18 45 -35q31 -16 62 -23q45 -8 74 -8q94 0 131 23q41 25 41 61q0 29 -20.5 49.5t-70.5 32.5l-192 41q-180 33 -272 117q-92 82 -93 209q0 74 35 137t94 104q61 43 141.5 67.5t172.5 24.5q47 0 112 -8q47 -6 89 -18q27 -8 67 -29 q31 -14 53 -35h174v-278h-258q0 25 -16 47t-45 37q-37 18 -74 26q-47 10 -98 11q-12 0 -45 -4q-23 -2 -45 -13q-20 -8 -33 -24q-14 -18 -14 -39q0 -6 4 -23q2 -10 12 -20q8 -8 29 -19q16 -8 45 -14l188 -37q117 -25 170 -49q70 -31 113 -72q41 -37 59 -88q18 -49 19 -106 q0 -92 -41 -156q-47 -74 -109 -113q-70 -45 -153 -65q-90 -23 -170 -23q-53 0 -101 7q-45 6 -82 18q-35 12 -65.5 28.5t-52.5 37.5h-181z" />
<glyph unicode="t" horiz-adv-x="798" d="M10 774v262h150l2 248l311 148l-2 -396h207v-262h-209l-2 -438q0 -37 6 -62q4 -20 19 -36q12 -14 26 -21q10 -4 37 -4q31 0 68 8q25 6 57 17l43 -193q-59 -35 -113 -51q-61 -18 -149 -19q-63 0 -116.5 20.5t-96.5 63.5t-67.5 106.5t-24.5 149.5l4 459h-150z" />
<glyph unicode="u" horiz-adv-x="1409" d="M59 762v274h459v-610q0 -102 53 -156q51 -51 138 -51q59 0 108 37q51 39 72 100v406h-166v274h489v-762h125v-274h-438v88q-51 -47 -125 -74q-76 -27 -164 -26.5t-161 26.5q-76 27 -132 82q-57 57 -89.5 137t-32.5 193v336h-136z" />
<glyph unicode="v" horiz-adv-x="1255" d="M41 762v274h541v-274h-125l168 -445l163 445h-112v274h541v-274h-138l-309 -766h-305l-309 766h-115z" />
<glyph unicode="w" horiz-adv-x="1896" d="M41 762v274h541v-274h-117l110 -369l213 643h293l215 -676l131 402h-110v274h541v-274h-140l-276 -766h-299l-217 661l-221 -661h-291l-256 766h-117z" />
<glyph unicode="x" horiz-adv-x="1234" d="M61 0v274h103l258 252l-240 236h-121v274h488v-274h-47l121 -107l116 107h-55v274h487v-274h-114l-240 -238l254 -250h103v-274h-488v274h59l-129 123l-135 -123h68v-274h-488z" />
<glyph unicode="y" horiz-adv-x="1239" d="M51 762v274h508v-274h-80l150 -387l151 387h-88v274h508v-274h-113l-401 -959h178v-274h-643v274h180l78 197l-323 762h-105z" />
<glyph unicode="z" horiz-adv-x="1138" d="M61 614v422h908v-180l-451 -588h230v199h262v-467h-916v164l428 606h-200v-156h-261z" />
<glyph unicode="{" horiz-adv-x="894" d="M102 606v191q45 8 66 8q23 0 59 4q18 2 47 14q20 8 35 33q12 20 23 64q8 35 8 102v401q0 96 18 164q18 66 58 109q35 37 94 57q55 18 131 19h84q27 0 59 -5q8 0 25.5 -1t26.5 -3v-307q-43 -2 -76 -10q-28 -6 -43 -25q-16 -20 -23 -45q-4 -18 -4 -73v-410q0 -25 -4 -62 q-2 -25 -16 -49q-14 -27 -35 -43q-23 -18 -57 -34q39 -16 59 -37q18 -18 33 -47q14 -27 16 -56q4 -41 4 -61v-371q0 -61 4 -82q6 -29 23 -49q15 -18 43 -25q20 -4 76 -8v-327q-8 -2 -25.5 -3t-26.5 -1q-33 -4 -59 -5h-84q-76 0 -131 19q-59 20 -94 57q-39 43 -58 109 q-18 68 -18 164v475q-6 61 -28.5 89.5t-53.5 41.5q-25 10 -72 10q-23 0 -84 8z" />
<glyph unicode="|" horiz-adv-x="593" d="M123 -270v1999h252v-1999h-252z" />
<glyph unicode="}" horiz-adv-x="894" d="M61 -31q55 4 76 8q28 6 43 25q16 20 23 49q4 20 4 82v371q0 20 4 61q2 29 16 56q14 29 33 47q20 20 59 37q-35 16 -57 34q-20 16 -35 43q-14 25 -16 49q-4 37 -4 62v410q0 55 -4 73q-6 25 -23 45q-15 18 -43 25q-33 8 -76 10v307q8 2 25.5 3t26.5 1q33 4 59 5h84 q61 0 111 -13q55 -14 87.5 -38.5t59.5 -71.5q20 -37 35 -109q6 -25 6 -55q0 -10 1 -30.5t1 -31.5v-321q0 -84 6 -139.5t19 -85.5q12 -29 30 -46q16 -14 47 -20q29 -6 60 -6q18 0 76 -8v-191q-61 -8 -84 -8q-47 0 -72 -10q-31 -12 -53.5 -41t-28.5 -90v-475q0 -10 -1 -31 t-1 -31q0 -31 -6 -55q-14 -72 -35 -109q-27 -47 -59.5 -71.5t-87.5 -38.5q-49 -12 -111 -13h-84q-27 0 -59 5q-8 0 -25.5 1t-26.5 3v327z" />
<glyph unicode="~" horiz-adv-x="903" d="M-8 512q0 29 6 66q8 49 16 73q14 45 31 70q27 41 49 61q27 25 74 41q45 16 96 17q31 0 55 -11q57 -23 66 -26q45 -20 74 -35l33.5 -17.5l37.5 -19.5q35 -16 64 -24q35 -10 51 -11q49 0 70 27q23 29 30 88l185 -41q0 -45 -12 -100q-12 -57 -46 -105q-37 -53 -90 -84 q-59 -35 -147 -35q-61 0 -109 23q-57 27 -100 51l-90 47q-45 23 -76 23q-18 0 -37 -6q-14 -6 -28.5 -18.5t-22.5 -35.5q-8 -18 -8 -55z" />
<glyph unicode="&#xa1;" horiz-adv-x="694" d="M139 -471l41 1067h287l41 -1067h-369zM139 985q0 35 13 70q10 27 38 55q25 25 55.5 39t71.5 14q39 0 68 -14q33 -16 55 -39q25 -25 39.5 -55.5t14.5 -69.5t-15 -70q-16 -35 -39 -57q-18 -18 -55 -37q-29 -14 -68 -14q-41 0 -71 14q-33 14 -56 37q-29 29 -38 57 q-13 35 -13 70z" />
<glyph unicode="&#xa2;" d="M72 694q0 92 28.5 182.5t79.5 155.5q55 72 123 119q70 49 158 74v354h332v-360q55 -20 69 -27q51 -23 68 -35h198v-301h-276q-43 49 -96 78q-51 27 -125 27q-61 0 -105 -21q-55 -25 -82 -55q-39 -43 -55 -86q-18 -49 -18 -107q0 -61 20 -108q20 -45 55 -84q27 -31 82 -56 q43 -20 103 -20q43 0 86 16q37 14 67 39q29 23 52 56q25 35 34 61l275 -80q-14 -47 -43 -100q-25 -47 -72 -101q-37 -41 -104 -88q-57 -39 -133 -61v-354h-332v348q-84 23 -160 76q-72 51 -123 118q-47 66 -78 158q-28 90 -28 182z" />
<glyph unicode="&#xa3;" horiz-adv-x="1064" d="M41 584v245h100q-6 29 -14 91q-6 46 -6 104q0 98 35 180q35 84 94 137q61 55 141 86t172 31q209 0 326 -110.5t135 -329.5l-336 -12q-4 84 -35 120q-33 39 -84 39q-47 0 -79.5 -32.5t-32.5 -106.5q0 -31 6 -65q4 -23 16 -64q9 -31 25 -68h268v-245h-174q8 -53 8 -82 t-4 -82q-2 -33 -14 -80q-8 -35 -23 -66h420v-274h-899v274h160q16 55 18 117q4 66 -8 101l-18 55q-8 25 -15 37h-182z" />
<glyph unicode="&#xa4;" horiz-adv-x="1437" d="M51 1206l264 242l195 -211q35 16 100 31q52 12 111 12q57 0 108 -12q70 -16 103 -31l192 211l265 -242l-195 -211q33 -61 49 -121q16 -57 16.5 -132.5t-16.5 -133.5q-18 -65 -49 -123l180 -190l-264 -240l-178 191q-100 -43 -211 -43q-55 0 -111 12q-59 14 -104 33 l-176 -193l-264 240l178 194q-31 66 -45 121q-16 66 -17 131q0 63 17 133q12 53 47 119zM469 749.5q0 -47.5 20 -98.5q18 -45 53.5 -79.5t80.5 -53.5q51 -20 98 -20t98 20q45 18 80 53q31 31 53 80q20 43 21 99q0 57 -21 100q-23 47 -53 78q-35 35 -80 53q-51 20 -98 20 t-98 -20q-45 -18 -80 -53t-54 -80q-20 -51 -20 -98.5z" />
<glyph unicode="&#xa5;" horiz-adv-x="1536" d="M47 1241v275h649v-275h-125l201 -307l213 307h-143v275h649v-275h-113l-245 -313h159v-258h-362l-2 -2v-58h364v-258h-364v-78h184v-274h-676v274h168v78h-360v258h360v60h-360v258h170l-234 313h-133z" />
<glyph unicode="&#xa6;" horiz-adv-x="593" d="M123 -270v757h252v-757h-252zM123 971v758h252v-758h-252z" />
<glyph unicode="&#xa7;" horiz-adv-x="1126" d="M29 72h348v-90q4 -23 12 -48q10 -27 33 -49q20 -20 63 -39q35 -14 90 -14q72 0 113 35q39 33 39 92q0 29 -14 49q-18 25 -35 35q-27 14 -49 23q-27 10 -54 18l-213 68q-59 18 -112 51t-96 82t-68 116q-27 74 -27 152q0 102 33 170q33 70 82 115q-25 25 -43 47 q-29 37 -53 98q-27 70 -27 152q0 101 37 178q39 80 105 131q63 49 159 78q88 27 199 26q94 0 174 -24q90 -29 139 -62q59 -41 88 -78q27 -35 45 -67h95v-295h-349v49h-2q6 33 -8 72q-12 35 -38.5 61.5t-61.5 40.5q-39 16 -80 17q-37 0 -55 -5q-28 -6 -49 -18 q-20 -12 -33 -33q-12 -23 -13 -51q0 -43 17 -61q18 -23 45 -37q29 -16 59 -25q23 -6 64 -18l264 -88q41 -14 88 -47q41 -29 72 -76q31 -46 49 -105t18 -131q0 -98 -32 -174q-31 -72 -74 -121q20 -18 53 -61q25 -33 45 -96q18 -58 19 -129q0 -104 -37 -186.5t-105 -143.5 q-63 -57 -162 -92q-92 -33 -208 -33q-89 0 -172 25q-80 23 -146 67q-66 43 -94 88l-39 66h-98v295zM412 571q0 -39 16 -61q12 -18 43 -37q16 -10 57 -22q49 -14 64 -21l31 -10q39 10 57 29q37 35 37 94q0 31 -12 51q-10 18 -35 32.5t-47 22.5l-52 19l-30 10l-43 -6 q-23 -4 -43 -17q-18 -12 -30.5 -32.5t-12.5 -51.5z" />
<glyph unicode="&#xa8;" horiz-adv-x="937" d="M47 1343q0 31 14 70q12 33 37 57q20 20 56 37q31 14 71 15q39 0 68 -15q37 -18 55 -37q25 -25 39 -57q14 -31 14 -69.5t-14 -69.5q-14 -33 -39 -57q-18 -18 -55 -37q-29 -14 -68 -15q-41 0 -71 15q-35 16 -56 37q-25 25 -37 57q-14 38 -14 69zM526 1343q0 39 15 70 q16 37 36.5 57.5t57.5 36.5q31 14 69.5 14.5t67.5 -14.5q41 -20 57 -37q20 -20 37 -57q14 -31 14.5 -69.5t-14.5 -69.5q-16 -37 -37 -57q-16 -16 -57 -37q-29 -14 -67.5 -14.5t-69.5 14.5q-37 16 -57.5 36.5t-36.5 57.5q-15 30 -15 69z" />
<glyph unicode="&#xa9;" horiz-adv-x="1918" d="M102 831q0 117 31 228q31 109 86 205q53 92 133 172t172 133q96 55 205 86q111 31 229 31q117 0 228 -31q109 -31 205 -86q90 -53 174 -133q80 -77 135 -172q55 -96 86 -205q31 -111 31 -228q0 -119 -31 -229q-31 -109 -86 -205q-55 -95 -135 -172q-84 -80 -174 -133 q-96 -55 -205 -86q-111 -31 -228 -31q-119 0 -229 31q-109 31 -205 86q-92 53 -172 133t-133 172q-55 96 -86 205q-31 110 -31 229zM330 831q0 -86 22 -169q20 -78 62 -150q40 -71 98 -129q61 -61 127 -98q72 -41 149 -62q84 -23 170 -22q84 0 168 22q82 23 152 62 q66 37 127 98q53 53 96 129q45 78 64 150q20 76 20 169q0 92 -20.5 168t-63.5 152q-39 70 -96 127q-61 61 -127 98q-70 39 -152 62q-84 23 -168 22.5t-167 -22.5q-82 -23 -152 -62q-66 -37 -127 -98t-98 -127q-39 -70 -62 -152q-22 -84 -22 -168zM471 831q0 102 41 194.5 t106 158.5q61 61 158 104q86 39 193 39q113 0 207 -43q100 -45 165 -117l-192 -194q-31 43 -80 65.5t-100 22.5t-90 -19q-41 -18 -72 -49q-27 -27 -47 -73q-18 -43 -19 -89q0 -47 18.5 -90t47.5 -71q31 -31 72 -49q39 -18 90 -19q55 0 98 21q51 25 82 63l190 -190 q-74 -78 -165 -119q-96 -43 -205 -43q-106 0 -193 39q-92 41 -157.5 106.5t-106.5 157.5t-41 194z" />
<glyph unicode="&#xaa;" horiz-adv-x="1005" d="M156 1108q0 41 14 80q14 37 43 63q31 27 78 45q49 18 119 19q57 0 84 -4q10 -2 35.5 -5t37.5 -6q-4 53 -37 66q-35 12 -88 12q-63 0 -102 -8q-49 -10 -94 -33l-72 142q74 49 147.5 73.5t163.5 24.5q55 0 121 -14q57 -12 96 -43q41 -33 66 -80q23 -45 23 -121v-223h94 v-203h-314v16q-33 -18 -71 -24q-49 -8 -76 -8q-61 0 -115 16q-47 14 -84 45q-33 27 -51 66t-18 104zM369 1112q0 -33 14 -47t49 -14q86 0 137 32v70h-159q-4 0 -25 -8q-16 -6 -16 -33z" />
<glyph unicode="&#xab;" horiz-adv-x="1036" d="M82 594v74l260 368h223l-211 -405l213 -408h-229zM522 594v74l260 368h224l-211 -405l213 -408h-230z" />
<glyph unicode="&#xac;" horiz-adv-x="1595" d="M51 782v254h1475v-788h-287v534h-1188z" />
<glyph unicode="&#xad;" horiz-adv-x="768" d="M61 449v274h627v-274h-627z" />
<glyph unicode="&#xae;" horiz-adv-x="2048" d="M102 831q0 117 31 228q31 109 86 205q53 92 133 172t172 133q96 55 205 86q111 31 229 31q117 0 228 -31q109 -31 205 -86q90 -53 174 -133q80 -77 135 -172q55 -96 86 -205q31 -111 31 -228q0 -119 -31 -229q-31 -109 -86 -205q-55 -95 -135 -172q-84 -80 -174 -133 q-96 -55 -205 -86q-111 -31 -228 -31q-119 0 -229 31q-109 31 -205 86q-92 53 -172 133t-133 172q-55 96 -86 205q-31 110 -31 229zM317 831q0 -86 23 -172q23 -90 63 -155q45 -74 100.5 -129.5t129.5 -100.5q68 -41 153.5 -63.5t171.5 -22.5t172.5 22.5t153.5 63.5 q74 45 129 100.5t100 129.5q41 66 64 155q23 86 22.5 172.5t-23 172.5t-63.5 153q-45 74 -100 129t-129 100q-68 41 -154 64t-172 23t-172 -23t-153 -64q-74 -45 -129 -100t-101 -129q-41 -68 -63.5 -154t-22.5 -172zM528 373v213h95v495h-91v211h533q78 0 137.5 -24.5 t97.5 -63.5q37 -37 60 -88q20 -47 20 -92q0 -53 -18 -96q-20 -47 -55 -80q-39 -35 -86 -53q39 -18 57 -41q20 -27 33 -88l14 -80h78v-213h-328l-14 194q-6 59 -16.5 84t-28.5 35q-20 12 -70 12h-65v-112h80v-213h-433zM881 899h65q66 0 111 21q39 18 39 69q0 43 -37 67.5 t-103 24.5h-75v-182z" />
<glyph unicode="&#xaf;" horiz-adv-x="829" d="M82 1176v215h688v-215h-688z" />
<glyph unicode="&#xb0;" horiz-adv-x="813" d="M102 1397q0 66 25 121q27 59 65.5 98t98.5 65q55 25 119 25q70 0 120 -23q59 -27 97 -65q45 -47 65 -98q23 -53 23 -125q0 -70 -23 -121q-25 -57 -65 -100q-37 -39 -97 -66q-55 -25 -120.5 -25t-120.5 25q-59 27 -99 66q-41 41 -65 100q-23 53 -23 123zM258 1389 q0 -28 12 -56q12 -29 30.5 -47t47.5 -33q25 -12 55 -12q39 0 62 10q33 14 49 30.5t31 49.5q12 28 12 62q0 41 -10 63q-12 29 -33 49q-18 18 -47 30.5t-59.5 12.5t-59.5 -12q-27 -12 -47 -33q-14 -14 -31 -51q-12 -26 -12 -63z" />
<glyph unicode="&#xb1;" horiz-adv-x="1228" d="M102 0v274h1024v-274h-1024zM102 651v297h363v363h297v-363h364v-297h-364v-323h-297v323h-363z" />
<glyph unicode="&#xb2;" horiz-adv-x="720" d="M80 1303q0 68 22 122q22 52 62 86q45 37 94 52q59 16 119 16q55 0 100 -14q51 -16 90 -43q41 -29 66 -72q27 -47 26 -104q0 -29 -6 -53.5t-18 -43t-29 -35.5q-23 -23 -37 -34l-159 -133h249v-205h-573v192l270 201q14 12 33 31q8 8 16.5 24.5t8.5 18.5v16 q0 16 -12.5 28.5t-39.5 12.5q-16 0 -32 -8q-8 -4 -17 -17q-6 -10 -6 -22q0 -4 -1 -9t-1 -7h-225z" />
<glyph unicode="&#xb3;" horiz-adv-x="720" d="M57 1102h219q0 -16 9 -41q4 -14 22 -29q16 -12 45 -12q25 0 41.5 10t22.5 25q8 20 8 32q0 28 -18 43q-20 16 -54 17h-98v133h108q16 0 33 16q14 14 15 43q0 18 -15 35q-14 18 -41 19q-23 0 -43 -17q-18 -15 -18 -55h-219q-4 59 14 106q20 53 53 86q35 35 92 58 q53 20 127 20q53 0 107 -18q43 -16 90 -51q39 -29 61 -76q23 -45 23 -92q0 -49 -14 -80q-12 -27 -33 -51q14 -12 33 -41q16 -29 22 -52q6 -28 6 -55q0 -51 -20 -94q-18 -41 -64 -82q-35 -33 -94 -55q-53 -20 -119 -21q-76 0 -129 21q-57 23 -94 59q-41 41 -57 88 q-21 58 -21 111z" />
<glyph unicode="&#xb4;" horiz-adv-x="679" d="M41 1178l215 311h326v-25l-306 -286h-235z" />
<glyph unicode="&#xb5;" horiz-adv-x="1349" d="M154 -471v1507h335v-610q0 -102 54 -156q51 -51 137 -51q59 0 108.5 37t71.5 100v680h324v-762h125v-274h-439v88q-51 -47 -125 -74q-76 -27 -163 -26q-45 0 -97 10v-469h-331z" />
<glyph unicode="&#xb6;" horiz-adv-x="1415" d="M61 1014q0 109 41 196q43 94 119 160q74 63 187 107q104 39 243 39h684v-275h-141v-1603h-293v1603h-172v-1603h-293v894q-78 23 -145 62q-63 37 -119 102q-51 61 -82 140q-29 74 -29 178z" />
<glyph unicode="&#xb7;" horiz-adv-x="720" d="M201 633q0 31 14 69q12 33 37 58q20 20 57 37q31 14 70 14t67 -14q41 -20 58 -37q20 -20 37 -58q14 -31 14 -69.5t-14 -69.5q-16 -35 -37 -55.5t-58 -38.5q-29 -14 -67.5 -14t-69.5 14q-35 14 -57 39q-27 27 -37 55q-14 39 -14 70z" />
<glyph unicode="&#xb8;" horiz-adv-x="925" d="M182 -293q41 4 78 19q31 12 66 47q29 29 51 73q23 43 31 101l243 -86q-20 -76 -65 -137q-45 -59 -101 -99q-55 -37 -127 -59q-68 -20 -151 -21z" />
<glyph unicode="&#xb9;" horiz-adv-x="538" d="M41 1217v233l238 127h112v-543h121v-194h-461v194h131v250z" />
<glyph unicode="&#xba;" horiz-adv-x="882" d="M61 1210q0 70 29 140q27 66 78 116q49 49 121 80q71 31 153 31t152 -31q78 -33 121 -80q51 -55 78 -118q29 -70 28 -138q0 -70 -28 -139q-29 -68 -76 -119q-43 -47 -121 -80q-72 -31 -154 -30q-86 0 -155 30q-78 33 -121 80q-51 55 -78 119q-27 65 -27 139zM287 1210.5 q0 -26.5 12 -51.5q12 -27 33 -43q27 -23 49 -33q29 -12 61.5 -12t59.5 12q23 10 49 33q16 14 31 43q12 25 12 51.5t-12 51.5q-14 29 -31 43q-22 18 -49 30q-23 10 -60 11q-39 0 -61 -11q-28 -12 -49 -30q-20 -16 -33 -43q-12 -25 -12 -51.5z" />
<glyph unicode="&#xbb;" horiz-adv-x="1099" d="M31 223l213 408l-211 405h223l260 -368v-74l-256 -371h-229zM471 223l213 408l-211 405h223l260 -368v-74l-256 -371h-229z" />
<glyph unicode="&#xbc;" horiz-adv-x="2349" d="M1660 1577h256l-1245 -1638h-262zM438 1217v233l238 127h112v-543h121v-194h-461v194h131v250zM1411 348l281 416h215l-283 -422h170v166h201v-166h104v-160h-104v-182h-201v182h-381z" />
<glyph unicode="&#xbd;" horiz-adv-x="2445" d="M494 1217v233l238 127h112v-543h121v-194h-461v194h131v250zM1716 1577h256l-1245 -1638h-262zM1491 190l270 201q14 12 33 31q8 8 16.5 24.5t8.5 18.5v16q0 16 -12.5 28.5t-39.5 12.5q-16 0 -32 -8q-6 -2 -17 -18q-6 -8 -6 -21q0 -4 -1 -9t-1 -7h-225q0 68 22 123 q22 52 62 86q45 37 94 51q59 16 119 16q55 0 100 -14q51 -16 90 -43q41 -29 66 -72q27 -47 26 -104q0 -29 -6 -53.5t-18 -42.5q-16 -25 -29 -37q-8 -8 -37 -33l-159 -133h249v-205h-573v192z" />
<glyph unicode="&#xbe;" horiz-adv-x="2265" d="M1577 1577h256l-1245 -1638h-262zM1327 348l281 416h215l-283 -422h170v166h201v-166h104v-160h-104v-182h-201v182h-381zM288 1102h219q0 -16 9 -41q4 -14 22 -29q16 -12 45 -12q25 0 41.5 10t22.5 25q8 20 8 32q0 28 -18 43q-20 16 -54 17h-98v133h108q16 0 33 16 q14 14 15 43q0 18 -15 35q-14 18 -41 19q-23 0 -43 -17q-18 -15 -18 -55h-219q-4 59 14 106q20 53 53 86q35 35 92 58q53 20 127 20q53 0 107 -18q43 -16 90 -51q39 -29 61 -76q23 -45 23 -92q0 -49 -14 -80q-12 -27 -33 -51q14 -12 33 -41q16 -29 22 -52q6 -28 6 -55 q0 -51 -20 -94q-18 -41 -64 -82q-35 -33 -94 -55q-53 -20 -119 -21q-76 0 -129 21q-57 23 -94 59q-41 41 -57 88q-21 58 -21 111z" />
<glyph unicode="&#xbf;" horiz-adv-x="1099" d="M49 -22.5q0 104.5 51 200.5q49 92 154 172q55 39 88 72q37 37 55.5 71.5t28.5 90.5q8 47 8 125h314q0 -88 -3 -123q-4 -63 -8 -94q-6 -39 -18 -74q-12 -37 -33 -62q-18 -25 -51 -53q-25 -23 -74 -57q-31 -25 -76 -70q-27 -25 -47 -61q-14 -25 -22 -66q-8 -45 -8 -74 q0 -59 30.5 -96t77.5 -37q23 0 59 8q23 4 46 25q20 16 32 53q10 29 11 84l317 -30q-4 -115 -37 -191q-35 -80 -100 -135q-63 -53 -150 -82q-82 -27 -188 -27q-92 0 -178 29t-146 82q-57 51 -96 135q-37 80 -37 184.5zM381 965q0 35 12 69q10 29 37 56q25 25 57 38 q31 14 70 15q41 0 70 -15q33 -16 55 -38q25 -25 39 -56q12 -27 12 -69.5t-12 -69.5q-16 -35 -39 -57q-18 -18 -55 -37q-29 -14 -70 -15q-39 0 -70 15q-37 16 -57 37q-25 25 -37 57q-12 35 -12 70z" />
<glyph unicode="&#xc0;" horiz-adv-x="1490" d="M27 0v274h112l414 1242h401l404 -1242h110v-274h-575v274h151l-67 218h-467l-68 -218h160v-274h-575zM590 748h305l-154 493zM483 1943v25h326l196 -311h-229z" />
<glyph unicode="&#xc1;" horiz-adv-x="1490" d="M27 0v274h112l414 1242h401l404 -1242h110v-274h-575v274h151l-67 218h-467l-68 -218h160v-274h-575zM590 748h305l-154 493zM475 1657l215 311h326v-25l-306 -286h-235z" />
<glyph unicode="&#xc2;" horiz-adv-x="1490" d="M27 0v274h112l414 1242h401l404 -1242h110v-274h-575v274h151l-67 218h-467l-68 -218h160v-274h-575zM590 748h305l-154 493zM352 1655l272 325h240l274 -325h-245l-148 153l-145 -153h-248z" />
<glyph unicode="&#xc3;" horiz-adv-x="1490" d="M27 0v274h112l414 1242h401l404 -1242h110v-274h-575v274h151l-67 218h-467l-68 -218h160v-274h-575zM590 748h305l-154 493zM307 1743q16 57 47 94q34 40 74 67q41 29 86 41q43 12 78 13q45 0 82 -15q45 -16 76 -32l73 -31q35 -14 70 -15q43 0 74 15q35 16 59 53 l158 -70q-14 -43 -43 -84q-27 -39 -64 -69.5t-78 -44.5q-45 -16 -90 -17q-51 0 -94 13q-20 6 -80 30l-73 31q-35 14 -76 14q-45 0 -76 -18q-25 -14 -51 -45z" />
<glyph unicode="&#xc4;" horiz-adv-x="1490" d="M27 0v274h112l414 1242h401l404 -1242h110v-274h-575v274h151l-67 218h-467l-68 -218h160v-274h-575zM590 748h305l-154 493zM328 1822q0 31 14 70q12 33 37 57q20 20 56 37q31 14 71 15q39 0 68 -15q37 -18 55 -37q25 -25 39 -57q14 -31 14 -69.5t-14 -69.5 q-14 -33 -39 -57q-18 -18 -55 -37q-29 -14 -68 -15q-41 0 -71 15q-35 16 -56 37q-25 25 -37 57q-14 38 -14 69zM807 1822q0 39 15 70q16 37 36.5 57.5t57.5 36.5q31 14 69.5 14.5t67.5 -14.5q41 -20 57 -37q20 -20 37 -57q14 -31 14.5 -69.5t-14.5 -69.5q-16 -37 -37 -57 q-16 -16 -57 -37q-29 -14 -67.5 -14.5t-69.5 14.5q-37 16 -57.5 36.5t-36.5 57.5q-15 30 -15 69z" />
<glyph unicode="&#xc5;" horiz-adv-x="1490" d="M27 0v274h112l414 1242h401l404 -1242h110v-274h-575v274h151l-67 218h-467l-68 -218h160v-274h-575zM590 748h305l-154 493zM745 2025q65 0 123 -24q57 -25 102 -70q43 -43 68 -100q25 -58 25 -123t-25 -123q-25 -59 -68 -102t-102 -68q-58 -25 -123 -25t-123 25 q-57 25 -100 68q-45 45 -70 102q-25 58 -24 123q0 65 24 123q23 53 70 100t100 70q58 24 123 24zM620 1708q0 -25 11 -49q8 -20 26.5 -39t38.5 -27q25 -10 49.5 -10t48.5 10q27 10 39 27q16 20 25 39q10 25 10 49t-10 49t-25 39q-18 18 -39 26q-18 8 -49 8.5t-49 -8.5 q-14 -6 -39 -26q-16 -12 -26 -39q-11 -24 -11 -49z" />
<glyph unicode="&#xc6;" horiz-adv-x="2091" d="M-35 0v274h127l791 1242h1149v-517h-326v215h-371v-305h291v-274h-291v-361h371v269h326v-543h-1149v274h121v138h-496l-84 -138h117v-274h-576zM672 686h332v567z" />
<glyph unicode="&#xc7;" horiz-adv-x="1552" d="M66 760q0 166 57 305q59 145 156 250q94 102 233 168q131 61 287 61q123 0 207 -30.5t186 -120.5h223v-338h-309q-57 84 -100 114q-41 31 -99 48q-49 14 -108 14q-86 0 -156 -37q-74 -39 -125 -102.5t-81.5 -149.5t-30.5 -182t30 -182q33 -90 80 -150q51 -63 125 -102 q72 -37 158 -37q55 0 112 20q45 16 95 51q43 31 73 74q39 53 51 86l322 -90q-33 -104 -90 -182q-61 -84 -145 -144q-88 -63 -191 -96q-109 -35 -227 -35q-104 0 -196.5 27t-176.5 80q-76 47 -147 123q-61 63 -112.5 159.5t-74.5 188.5q-26 111 -26 209zM542 -293q41 4 78 19 q31 12 66 47q29 29 51 73q23 43 31 101l243 -86q-20 -76 -65 -137q-45 -59 -101 -99q-55 -37 -127 -59q-68 -20 -151 -21z" />
<glyph unicode="&#xc8;" horiz-adv-x="1378" d="M113 0v274h159v940h-159v302h1206v-517h-326v215h-389v-299h301v-290h-301v-351h389v269h326v-543h-1206zM428 1943v25h326l196 -311h-229z" />
<glyph unicode="&#xc9;" horiz-adv-x="1378" d="M113 0v274h159v940h-159v302h1206v-517h-326v215h-389v-299h301v-290h-301v-351h389v269h326v-543h-1206zM420 1657l215 311h326v-25l-306 -286h-235z" />
<glyph unicode="&#xca;" horiz-adv-x="1378" d="M113 0v274h159v940h-159v302h1206v-517h-326v215h-389v-299h301v-290h-301v-351h389v269h326v-543h-1206zM297 1655l272 325h240l274 -325h-245l-148 153l-145 -153h-248z" />
<glyph unicode="&#xcb;" horiz-adv-x="1378" d="M113 0v274h159v940h-159v302h1206v-517h-326v215h-389v-299h301v-290h-301v-351h389v269h326v-543h-1206zM272 1822q0 31 14 70q12 33 37 57q20 20 56 37q31 14 71 15q39 0 68 -15q37 -18 55 -37q25 -25 39 -57q14 -31 14 -69.5t-14 -69.5q-14 -33 -39 -57 q-18 -18 -55 -37q-29 -14 -68 -15q-41 0 -71 15q-35 16 -56 37q-25 25 -37 57q-14 38 -14 69zM751 1822q0 39 15 70q16 37 36.5 57.5t57.5 36.5q31 14 69.5 14.5t67.5 -14.5q41 -20 57 -37q20 -20 37 -57q14 -31 14.5 -69.5t-14.5 -69.5q-16 -37 -37 -57q-16 -16 -57 -37 q-29 -14 -67.5 -14.5t-69.5 14.5q-37 16 -57.5 36.5t-36.5 57.5q-15 30 -15 69z" />
<glyph unicode="&#xcc;" horiz-adv-x="808" d="M113 0v274h157v967h-157v275h649v-275h-160v-967h160v-274h-649zM145 1943v25h326l196 -311h-229z" />
<glyph unicode="&#xcd;" horiz-adv-x="808" d="M113 0v274h157v967h-157v275h649v-275h-160v-967h160v-274h-649zM133 1657l215 311h326v-25l-306 -286h-235z" />
<glyph unicode="&#xce;" horiz-adv-x="808" d="M113 0v274h157v967h-157v275h649v-275h-160v-967h160v-274h-649zM12 1655l272 325h240l274 -325h-245l-148 153l-145 -153h-248z" />
<glyph unicode="&#xcf;" horiz-adv-x="808" d="M113 0v274h157v967h-157v275h649v-275h-160v-967h160v-274h-649zM-10 1822q0 31 14 70q12 33 37 57q20 20 56 37q31 14 71 15q39 0 68 -15q37 -18 55 -37q25 -25 39 -57q14 -31 14 -69.5t-14 -69.5q-14 -33 -39 -57q-18 -18 -55 -37q-29 -14 -68 -15q-41 0 -71 15 q-35 16 -56 37q-25 25 -37 57q-14 38 -14 69zM469 1822q0 39 15 70q16 37 36.5 57.5t57.5 36.5q31 14 69.5 14.5t67.5 -14.5q41 -20 57 -37q20 -20 37 -57q14 -31 14.5 -69.5t-14.5 -69.5q-16 -37 -37 -57q-16 -16 -57 -37q-29 -14 -67.5 -14.5t-69.5 14.5 q-37 16 -57.5 36.5t-36.5 57.5q-15 30 -15 69z" />
<glyph unicode="&#xd0;" horiz-adv-x="1466" d="M66 621v274h137v346h-121v275h582q109 0 200 -27q98 -29 178 -76t150 -117q57 -57 115 -153q49 -84 73 -180q27 -106 27 -202.5t-27 -203.5q-23 -90 -73 -180q-47 -84 -115 -153.5t-150 -119.5q-86 -51 -178 -77.5t-200 -26.5h-582v274h121v347h-137zM535 274h127 q84 0 153.5 37t124.5 105q53 68 84 153q31 89 31 191q0 100 -31 188q-31 86 -84 154q-51 63 -125 102q-70 37 -153 37h-127v-346h157v-274h-157v-347z" />
<glyph unicode="&#xd1;" horiz-adv-x="1697" d="M113 0v274h125v967h-123v275h458l627 -994v719h-129v275h576v-275h-123v-1241h-332l-631 981v-707h127v-274h-575zM409 1743q16 57 47 94q34 40 74 67q41 29 86 41q43 12 78 13q45 0 82 -15q45 -16 76 -32l73 -31q35 -14 70 -15q43 0 74 15q35 16 59 53l158 -70 q-14 -43 -43 -84q-27 -39 -64 -69.5t-78 -44.5q-45 -16 -90 -17q-51 0 -94 13q-20 6 -80 30l-73 31q-35 14 -76 14q-45 0 -76 -18q-25 -14 -51 -45z" />
<glyph unicode="&#xd2;" horiz-adv-x="1619" d="M66 758q0 98 26 209q23 92 74 188t113 160q72 76 147 123q78 49 176 77.5t197 28.5q100 0 198.5 -28.5t176.5 -77.5q76 -47 147 -123q61 -63 112.5 -159.5t73.5 -188.5q27 -111 27 -209.5t-27 -208.5q-23 -88 -73 -187q-51 -96 -113 -159q-72 -76 -147 -123 q-84 -53 -176.5 -80t-198.5 -27q-104 0 -196.5 27t-176.5 80q-76 47 -147 123q-61 63 -113 159q-51 98 -74 187q-26 111 -26 209zM406 758q0 -96 30 -183q33 -90 80 -149q51 -63 125 -102q72 -37 158 -37t159 37q70 35 125 102q53 66 80 149q29 90 29 182.5t-29 182.5 q-27 84 -82 152q-51 63 -125 102q-72 37 -157.5 37t-157.5 -37q-74 -39 -125 -102q-45 -57 -80 -152q-30 -86 -30 -182zM539 1943v25h326l196 -311h-229z" />
<glyph unicode="&#xd3;" horiz-adv-x="1619" d="M66 758q0 98 26 209q23 92 74 188t113 160q72 76 147 123q78 49 176 77.5t197 28.5q100 0 198.5 -28.5t176.5 -77.5q76 -47 147 -123q61 -63 112.5 -159.5t73.5 -188.5q27 -111 27 -209.5t-27 -208.5q-23 -88 -73 -187q-51 -96 -113 -159q-72 -76 -147 -123 q-84 -53 -176.5 -80t-198.5 -27q-104 0 -196.5 27t-176.5 80q-76 47 -147 123q-61 63 -113 159q-51 98 -74 187q-26 111 -26 209zM406 758q0 -96 30 -183q33 -90 80 -149q51 -63 125 -102q72 -37 158 -37t159 37q70 35 125 102q53 66 80 149q29 90 29 182.5t-29 182.5 q-27 84 -82 152q-51 63 -125 102q-72 37 -157.5 37t-157.5 -37q-74 -39 -125 -102q-45 -57 -80 -152q-30 -86 -30 -182zM528 1657l215 311h326v-25l-306 -286h-235z" />
<glyph unicode="&#xd4;" horiz-adv-x="1619" d="M66 758q0 98 26 209q23 92 74 188t113 160q72 76 147 123q78 49 176 77.5t197 28.5q100 0 198.5 -28.5t176.5 -77.5q76 -47 147 -123q61 -63 112.5 -159.5t73.5 -188.5q27 -111 27 -209.5t-27 -208.5q-23 -88 -73 -187q-51 -96 -113 -159q-72 -76 -147 -123 q-84 -53 -176.5 -80t-198.5 -27q-104 0 -196.5 27t-176.5 80q-76 47 -147 123q-61 63 -113 159q-51 98 -74 187q-26 111 -26 209zM406 758q0 -96 30 -183q33 -90 80 -149q51 -63 125 -102q72 -37 158 -37t159 37q70 35 125 102q53 66 80 149q29 90 29 182.5t-29 182.5 q-27 84 -82 152q-51 63 -125 102q-72 37 -157.5 37t-157.5 -37q-74 -39 -125 -102q-45 -57 -80 -152q-30 -86 -30 -182zM405 1655l272 325h240l274 -325h-245l-148 153l-145 -153h-248z" />
<glyph unicode="&#xd5;" horiz-adv-x="1619" d="M66 758q0 98 26 209q23 92 74 188t113 160q72 76 147 123q78 49 176 77.5t197 28.5q100 0 198.5 -28.5t176.5 -77.5q76 -47 147 -123q61 -63 112.5 -159.5t73.5 -188.5q27 -111 27 -209.5t-27 -208.5q-23 -88 -73 -187q-51 -96 -113 -159q-72 -76 -147 -123 q-84 -53 -176.5 -80t-198.5 -27q-104 0 -196.5 27t-176.5 80q-76 47 -147 123q-61 63 -113 159q-51 98 -74 187q-26 111 -26 209zM406 758q0 -96 30 -183q33 -90 80 -149q51 -63 125 -102q72 -37 158 -37t159 37q70 35 125 102q53 66 80 149q29 90 29 182.5t-29 182.5 q-27 84 -82 152q-51 63 -125 102q-72 37 -157.5 37t-157.5 -37q-74 -39 -125 -102q-45 -57 -80 -152q-30 -86 -30 -182zM360 1743q16 57 47 94q34 40 74 67q41 29 86 41q43 12 78 13q45 0 82 -15q45 -16 76 -32l73 -31q35 -14 70 -15q43 0 74 15q35 16 59 53l158 -70 q-14 -43 -43 -84q-27 -39 -64 -69.5t-78 -44.5q-45 -16 -90 -17q-51 0 -94 13q-20 6 -80 30l-73 31q-35 14 -76 14q-45 0 -76 -18q-25 -14 -51 -45z" />
<glyph unicode="&#xd6;" horiz-adv-x="1619" d="M66 758q0 98 26 209q23 92 74 188t113 160q72 76 147 123q78 49 176 77.5t197 28.5q100 0 198.5 -28.5t176.5 -77.5q76 -47 147 -123q61 -63 112.5 -159.5t73.5 -188.5q27 -111 27 -209.5t-27 -208.5q-23 -88 -73 -187q-51 -96 -113 -159q-72 -76 -147 -123 q-84 -53 -176.5 -80t-198.5 -27q-104 0 -196.5 27t-176.5 80q-76 47 -147 123q-61 63 -113 159q-51 98 -74 187q-26 111 -26 209zM406 758q0 -96 30 -183q33 -90 80 -149q51 -63 125 -102q72 -37 158 -37t159 37q70 35 125 102q53 66 80 149q29 90 29 182.5t-29 182.5 q-27 84 -82 152q-51 63 -125 102q-72 37 -157.5 37t-157.5 -37q-74 -39 -125 -102q-45 -57 -80 -152q-30 -86 -30 -182zM383 1822q0 31 14 70q12 33 37 57q20 20 56 37q31 14 71 15q39 0 68 -15q37 -18 55 -37q25 -25 39 -57q14 -31 14 -69.5t-14 -69.5q-14 -33 -39 -57 q-18 -18 -55 -37q-29 -14 -68 -15q-41 0 -71 15q-35 16 -56 37q-25 25 -37 57q-14 38 -14 69zM862 1822q0 39 15 70q16 37 36.5 57.5t57.5 36.5q31 14 69.5 14.5t67.5 -14.5q41 -20 57 -37q20 -20 37 -57q14 -31 14.5 -69.5t-14.5 -69.5q-16 -37 -37 -57q-16 -16 -57 -37 q-29 -14 -67.5 -14.5t-69.5 14.5q-37 16 -57.5 36.5t-36.5 57.5q-15 30 -15 69z" />
<glyph unicode="&#xd7;" horiz-adv-x="1236" d="M61 1053l222 200l335 -366l338 366l222 -200l-357 -387l344 -373l-221 -199l-326 352l-323 -352l-221 199l344 373z" />
<glyph unicode="&#xd8;" horiz-adv-x="1589" d="M55 -35l201 264q-90 106 -139 240q-51 141 -51 289q0 98 26 209q23 92 74 188t113 160q72 76 147 123q78 49 176 77.5t197 28.5q102 0 200 -28q86 -25 177 -82l131 170h256l-232 -304q94 -106 150 -243q53 -133 53 -299q0 -98 -27 -209q-23 -88 -73 -187 q-51 -96 -113 -159q-72 -76 -147 -123q-84 -53 -176.5 -80t-199 -27t-204.5 31q-94 29 -182 86l-95 -125h-262zM406 758q0 -66 16 -135q12 -55 45 -119l514 676q-40 25 -86 37q-53 14 -96 14q-86 0 -158 -37q-74 -39 -125 -102q-45 -57 -80 -152q-30 -86 -30 -182zM604 344 q43 -28 92 -43q45 -14 103 -14q86 0 159 37q70 35 125 102q53 66 80 149q29 90 29 183q0 76 -18 143q-18 70 -50 127z" />
<glyph unicode="&#xd9;" horiz-adv-x="1560" d="M51 1241v275h608v-275h-139v-629q0 -84 19 -145q16 -57 55 -98q33 -37 84 -56q49 -18 104 -18q61 0 107 14q49 16 84 53q37 39 53 97q18 61 18 153v629h-161v275h608v-275h-121v-590q0 -156 -47 -284q-47 -127 -125 -211q-76 -82 -190 -131q-104 -45 -232 -45 q-117 0 -229 45q-106 43 -187 129q-82 88 -127 204.5t-45 274.5v608h-137zM518 1943v25h326l196 -311h-229z" />
<glyph unicode="&#xda;" horiz-adv-x="1560" d="M51 1241v275h608v-275h-139v-629q0 -84 19 -145q16 -57 55 -98q33 -37 84 -56q49 -18 104 -18q61 0 107 14q49 16 84 53q37 39 53 97q18 61 18 153v629h-161v275h608v-275h-121v-590q0 -156 -47 -284q-47 -127 -125 -211q-76 -82 -190 -131q-104 -45 -232 -45 q-117 0 -229 45q-106 43 -187 129q-82 88 -127 204.5t-45 274.5v608h-137zM510 1657l215 311h326v-25l-306 -286h-235z" />
<glyph unicode="&#xdb;" horiz-adv-x="1560" d="M51 1241v275h608v-275h-139v-629q0 -84 19 -145q16 -57 55 -98q33 -37 84 -56q49 -18 104 -18q61 0 107 14q49 16 84 53q37 39 53 97q18 61 18 153v629h-161v275h608v-275h-121v-590q0 -156 -47 -284q-47 -127 -125 -211q-76 -82 -190 -131q-104 -45 -232 -45 q-117 0 -229 45q-106 43 -187 129q-82 88 -127 204.5t-45 274.5v608h-137zM387 1655l272 325h240l274 -325h-245l-148 153l-145 -153h-248z" />
<glyph unicode="&#xdc;" horiz-adv-x="1560" d="M51 1241v275h608v-275h-139v-629q0 -84 19 -145q16 -57 55 -98q33 -37 84 -56q49 -18 104 -18q61 0 107 14q49 16 84 53q37 39 53 97q18 61 18 153v629h-161v275h608v-275h-121v-590q0 -156 -47 -284q-47 -127 -125 -211q-76 -82 -190 -131q-104 -45 -232 -45 q-117 0 -229 45q-106 43 -187 129q-82 88 -127 204.5t-45 274.5v608h-137zM362 1822q0 31 14 70q12 33 37 57q20 20 56 37q31 14 71 15q39 0 68 -15q37 -18 55 -37q25 -25 39 -57q14 -31 14 -69.5t-14 -69.5q-14 -33 -39 -57q-18 -18 -55 -37q-29 -14 -68 -15q-41 0 -71 15 q-35 16 -56 37q-25 25 -37 57q-14 38 -14 69zM841 1822q0 39 15 70q16 37 36.5 57.5t57.5 36.5q31 14 69.5 14.5t67.5 -14.5q41 -20 57 -37q20 -20 37 -57q14 -31 14.5 -69.5t-14.5 -69.5q-16 -37 -37 -57q-16 -16 -57 -37q-29 -14 -67.5 -14.5t-69.5 14.5 q-37 16 -57.5 36.5t-36.5 57.5q-15 30 -15 69z" />
<glyph unicode="&#xdd;" horiz-adv-x="1536" d="M47 1241v275h649v-275h-127l203 -348l215 348h-145v275h649v-275h-113l-450 -612v-355h184v-274h-676v274h168v359l-424 608h-133zM498 1657l215 311h326v-25l-306 -286h-235z" />
<glyph unicode="&#xde;" horiz-adv-x="1449" d="M113 0v274h157v967h-157v275h649v-275h-160v-47h211q119 0 215 -33q92 -31 168 -94q76 -61 113 -137q39 -78 39 -174q0 -84 -31 -162q-29 -74 -98 -139q-57 -55 -166 -95q-101 -37 -240 -36h-211v-50h160v-274h-649zM602 594h137q115 0 181 39q68 39 67 121 q0 80 -63.5 123t-184.5 43h-137v-326z" />
<glyph unicode="&#xdf;" horiz-adv-x="1353" d="M37 0v274h207v908q0 71 30 141q29 66 91 127q55 55 145 94q82 35 197 35q111 0 194.5 -33t145.5 -88q57 -53 94 -131q33 -72 33 -158q0 -57 -9 -92q-12 -49 -22 -73q-14 -33 -35 -60q-18 -25 -41 -47q104 -63 162 -168q59 -106 59 -235q0 -125 -41 -224 q-37 -88 -112 -157q-68 -63 -170 -95q-98 -31 -211 -30q-8 0 -19.5 1t-17.5 1q-8 0 -37 4l14 276q20 -4 29 -4h27q41 0 84 17q37 14 67 45q29 29 45 69q16 43 17 86q0 39 -17 82q-14 37 -45 68t-67 45q-43 16 -82 16h-68l-2 285h72q37 0 59 16q22 15 37 37q12 18 24 49 q8 23 9 47q0 76 -47 127q-46 49 -129 50q-35 0 -66 -13q-29 -12 -49.5 -34.5t-32.5 -57.5q-12 -34 -12 -74v-1124h-37v-2h-473z" />
<glyph unicode="&#xe0;" horiz-adv-x="1280" d="M72 307q0 70 28.5 133.5t77.5 104.5q52 43 129 67q78 25 172 25q51 0 129 -8q59 -6 109 -19v33q0 41 -15 68q-16 29 -43 47q-27 16 -63 26q-33 8 -84 9q-95 0 -166 -19q-72 -18 -137 -53l-96 194q98 68 213 107q111 37 237 37q100 0 180 -21q82 -20 142 -71 q59 -49 92 -125q33 -74 33 -191v-377h139v-274h-432v55l-64 -37q-25 -14 -57 -24q-35 -12 -61 -14q-41 -4 -68 -5q-92 0 -166 25t-125 70q-49 43 -78 106q-26 59 -26 131zM354 319q0 -47 33 -77q35 -31 102.5 -31t128.5 22q53 20 99 58v131h-240q-23 0 -45 -6 q-14 -4 -39 -21q-18 -12 -28.5 -32.5t-10.5 -43.5zM369 1464v25h326l196 -311h-229z" />
<glyph unicode="&#xe1;" horiz-adv-x="1280" d="M72 307q0 70 28.5 133.5t77.5 104.5q52 43 129 67q78 25 172 25q51 0 129 -8q59 -6 109 -19v33q0 41 -15 68q-16 29 -43 47q-27 16 -63 26q-33 8 -84 9q-95 0 -166 -19q-72 -18 -137 -53l-96 194q98 68 213 107q111 37 237 37q100 0 180 -21q82 -20 142 -71 q59 -49 92 -125q33 -74 33 -191v-377h139v-274h-432v55l-64 -37q-25 -14 -57 -24q-35 -12 -61 -14q-41 -4 -68 -5q-92 0 -166 25t-125 70q-49 43 -78 106q-26 59 -26 131zM354 319q0 -47 33 -77q35 -31 102.5 -31t128.5 22q53 20 99 58v131h-240q-23 0 -45 -6 q-14 -4 -39 -21q-18 -12 -28.5 -32.5t-10.5 -43.5zM358 1178l215 311h326v-25l-306 -286h-235z" />
<glyph unicode="&#xe2;" horiz-adv-x="1280" d="M72 307q0 70 28.5 133.5t77.5 104.5q52 43 129 67q78 25 172 25q51 0 129 -8q59 -6 109 -19v33q0 41 -15 68q-16 29 -43 47q-27 16 -63 26q-33 8 -84 9q-95 0 -166 -19q-72 -18 -137 -53l-96 194q98 68 213 107q111 37 237 37q100 0 180 -21q82 -20 142 -71 q59 -49 92 -125q33 -74 33 -191v-377h139v-274h-432v55l-64 -37q-25 -14 -57 -24q-35 -12 -61 -14q-41 -4 -68 -5q-92 0 -166 25t-125 70q-49 43 -78 106q-26 59 -26 131zM354 319q0 -47 33 -77q35 -31 102.5 -31t128.5 22q53 20 99 58v131h-240q-23 0 -45 -6 q-14 -4 -39 -21q-18 -12 -28.5 -32.5t-10.5 -43.5zM238 1176l272 325h240l274 -325h-245l-148 153l-145 -153h-248z" />
<glyph unicode="&#xe3;" horiz-adv-x="1280" d="M72 307q0 70 28.5 133.5t77.5 104.5q52 43 129 67q78 25 172 25q51 0 129 -8q59 -6 109 -19v33q0 41 -15 68q-16 29 -43 47q-27 16 -63 26q-33 8 -84 9q-95 0 -166 -19q-72 -18 -137 -53l-96 194q98 68 213 107q111 37 237 37q100 0 180 -21q82 -20 142 -71 q59 -49 92 -125q33 -74 33 -191v-377h139v-274h-432v55l-64 -37q-25 -14 -57 -24q-35 -12 -61 -14q-41 -4 -68 -5q-92 0 -166 25t-125 70q-49 43 -78 106q-26 59 -26 131zM354 319q0 -47 33 -77q35 -31 102.5 -31t128.5 22q53 20 99 58v131h-240q-23 0 -45 -6 q-14 -4 -39 -21q-18 -12 -28.5 -32.5t-10.5 -43.5zM190 1264q16 57 47 94q34 40 74 67q41 29 86 41q43 12 78 13q45 0 82 -15q45 -16 76 -32l73 -31q35 -14 70 -15q43 0 74 15q35 16 59 53l158 -70q-14 -43 -43 -84q-27 -39 -64 -69.5t-78 -44.5q-45 -16 -90 -17 q-51 0 -94 13q-20 6 -80 30l-73 31q-35 14 -76 14q-45 0 -76 -18q-25 -14 -51 -45z" />
<glyph unicode="&#xe4;" horiz-adv-x="1280" d="M72 307q0 70 28.5 133.5t77.5 104.5q52 43 129 67q78 25 172 25q51 0 129 -8q59 -6 109 -19v33q0 41 -15 68q-16 29 -43 47q-27 16 -63 26q-33 8 -84 9q-95 0 -166 -19q-72 -18 -137 -53l-96 194q98 68 213 107q111 37 237 37q100 0 180 -21q82 -20 142 -71 q59 -49 92 -125q33 -74 33 -191v-377h139v-274h-432v55l-64 -37q-25 -14 -57 -24q-35 -12 -61 -14q-41 -4 -68 -5q-92 0 -166 25t-125 70q-49 43 -78 106q-26 59 -26 131zM354 319q0 -47 33 -77q35 -31 102.5 -31t128.5 22q53 20 99 58v131h-240q-23 0 -45 -6 q-14 -4 -39 -21q-18 -12 -28.5 -32.5t-10.5 -43.5zM213 1343q0 31 14 70q12 33 37 57q20 20 56 37q31 14 71 15q39 0 68 -15q37 -18 55 -37q25 -25 39 -57q14 -31 14 -69.5t-14 -69.5q-14 -33 -39 -57q-18 -18 -55 -37q-29 -14 -68 -15q-41 0 -71 15q-35 16 -56 37 q-25 25 -37 57q-14 38 -14 69zM692 1343q0 39 15 70q16 37 36.5 57.5t57.5 36.5q31 14 69.5 14.5t67.5 -14.5q41 -20 57 -37q20 -20 37 -57q14 -31 14.5 -69.5t-14.5 -69.5q-16 -37 -37 -57q-16 -16 -57 -37q-29 -14 -67.5 -14.5t-69.5 14.5q-37 16 -57.5 36.5t-36.5 57.5 q-15 30 -15 69z" />
<glyph unicode="&#xe5;" horiz-adv-x="1280" d="M72 307q0 70 28.5 133.5t77.5 104.5q52 43 129 67q78 25 172 25q51 0 129 -8q59 -6 109 -19v33q0 41 -15 68q-16 29 -43 47q-27 16 -63 26q-33 8 -84 9q-95 0 -166 -19q-72 -18 -137 -53l-96 194q98 68 213 107q111 37 237 37q100 0 180 -21q82 -20 142 -71 q59 -49 92 -125q33 -74 33 -191v-377h139v-274h-432v55l-64 -37q-25 -14 -57 -24q-35 -12 -61 -14q-41 -4 -68 -5q-92 0 -166 25t-125 70q-49 43 -78 106q-26 59 -26 131zM354 319q0 -47 33 -77q35 -31 102.5 -31t128.5 22q53 20 99 58v131h-240q-23 0 -45 -6 q-14 -4 -39 -21q-18 -12 -28.5 -32.5t-10.5 -43.5zM575 1732q65 0 123 -24q57 -25 102 -70q43 -43 68 -100q25 -58 25 -123t-25 -123q-25 -59 -68 -102t-102 -68q-58 -25 -123 -25t-123 25q-57 25 -100 68q-45 45 -70 102q-25 58 -24 123q0 65 24 123q23 53 70 100t100 70 q58 24 123 24zM450 1415q0 -25 11 -49q8 -20 26.5 -39t38.5 -27q25 -10 49.5 -10t48.5 10q27 10 39 27q16 20 25 39q10 25 10 49t-10 49t-25 39q-18 18 -39 26q-18 8 -49 8.5t-49 -8.5q-14 -6 -39 -26q-16 -12 -26 -39q-11 -24 -11 -49z" />
<glyph unicode="&#xe6;" horiz-adv-x="1849" d="M72 307q0 70 28.5 133.5t77.5 104.5q52 43 129 67q78 25 172 25q82 0 137 -8q43 -6 95 -17v31q0 80 -54 115q-51 35 -145 35q-95 0 -166 -19q-72 -18 -137 -53l-96 194q98 68 213 107q111 37 237 37q102 0 178 -21q82 -23 154 -84q59 51 135 84q100 43 223 43 q119 0 217 -41q88 -37 158 -112q68 -74 101 -168q37 -102 38 -164q4 -90 5 -92q0 -35 -3 -51h-763l4 -31q14 -51 37 -80q29 -35 63 -55q41 -23 80 -35q43 -12 88 -12q46 0 86 6q53 8 77.5 14t74.5 23q37 12 73 26l111 -205q-80 -47 -105 -59q-49 -27 -96 -41 q-66 -20 -102 -24q-55 -6 -125 -7q-133 0 -242 45q-102 43 -176 119q-39 -39 -63 -57q-37 -27 -84 -51q-43 -23 -109 -39q-55 -14 -131 -15q-92 0 -166 25t-125 70q-49 43 -78 106q-26 59 -26 131zM354 319q0 -47 33 -77q35 -31 102 -31q92 0 158 31q51 23 103 63 q0 2 -2.5 5t-2.5 5q-20 59 -28 107h-240q-23 0 -45 -6q-14 -4 -39 -21q-18 -12 -28.5 -32.5t-10.5 -43.5zM1016 664h432q-4 23 -21 63q-12 31 -34 53q-25 27 -60 37q-43 14 -88 14q-49 0 -96 -14q-37 -12 -66 -37q-29 -27 -43 -53q-16 -32 -24 -63z" />
<glyph unicode="&#xe7;" horiz-adv-x="1179" d="M72 530q0 119 41 213q45 102 114 172q76 76 174 115q94 37 203 37h17h20q71 0 141 -18q76 -20 152 -70h199v-301h-277q-41 53 -96 82q-43 23 -108 23q-8 0 -17 -1q-13 1 -24 1q-49 0 -81 -15q-51 -25 -81 -57q-39 -43 -56 -86q-18 -49 -18 -111q0 -57 20 -104 q23 -49 54 -84q27 -29 83 -56q45 -20 103 -24q39 2 86 20q37 14 67 39q29 23 52 55q25 37 34 58l275 -76q-20 -66 -59 -125q-49 -76 -107 -119q-74 -57 -158 -88q-94 -35 -209 -35q-117 0 -219 43q-98 41 -172 119q-74 76 -112 176q-41 104 -41 217zM354 -293q41 4 78 19 q31 12 66 47q29 29 51 73q23 43 31 101l243 -86q-20 -76 -65 -137q-45 -59 -101 -99q-55 -37 -127 -59q-68 -20 -151 -21z" />
<glyph unicode="&#xe8;" horiz-adv-x="1185" d="M51 532q0 115 39 213q37 96 113 175q74 78 172 118q100 43 221 43q119 0 217 -41q92 -39 160 -112q63 -70 98 -168q37 -102 39 -207q4 -33 4 -49q0 -35 -2 -51h-764l4 -31q14 -51 37 -80q29 -35 64 -55q41 -23 79 -35q43 -12 89 -12t86 6q53 8 77.5 14t73.5 23 q37 12 74 26l110 -205q-80 -47 -104 -59q-49 -27 -96 -41q-66 -20 -103 -24q-55 -6 -125 -7q-131 0 -239 45q-111 45 -178 119q-72 78 -109 178q-37 102 -37 217zM358 664h433q-4 23 -21 63q-12 31 -35 53q-27 27 -59 37q-43 14 -88 14q-49 0 -96 -14q-37 -12 -66 -37 q-29 -27 -43 -53q-17 -32 -25 -63zM332 1464v25h326l196 -311h-229z" />
<glyph unicode="&#xe9;" horiz-adv-x="1185" d="M51 532q0 115 39 213q37 96 113 175q74 78 172 118q100 43 221 43q119 0 217 -41q92 -39 160 -112q63 -70 98 -168q37 -102 39 -207q4 -33 4 -49q0 -35 -2 -51h-764l4 -31q14 -51 37 -80q29 -35 64 -55q41 -23 79 -35q43 -12 89 -12t86 6q53 8 77.5 14t73.5 23 q37 12 74 26l110 -205q-80 -47 -104 -59q-49 -27 -96 -41q-66 -20 -103 -24q-55 -6 -125 -7q-131 0 -239 45q-111 45 -178 119q-72 78 -109 178q-37 102 -37 217zM358 664h433q-4 23 -21 63q-12 31 -35 53q-27 27 -59 37q-43 14 -88 14q-49 0 -96 -14q-37 -12 -66 -37 q-29 -27 -43 -53q-17 -32 -25 -63zM322 1178l215 311h326v-25l-306 -286h-235z" />
<glyph unicode="&#xea;" horiz-adv-x="1185" d="M51 532q0 115 39 213q37 96 113 175q74 78 172 118q100 43 221 43q119 0 217 -41q92 -39 160 -112q63 -70 98 -168q37 -102 39 -207q4 -33 4 -49q0 -35 -2 -51h-764l4 -31q14 -51 37 -80q29 -35 64 -55q41 -23 79 -35q43 -12 89 -12t86 6q53 8 77.5 14t73.5 23 q37 12 74 26l110 -205q-80 -47 -104 -59q-49 -27 -96 -41q-66 -20 -103 -24q-55 -6 -125 -7q-131 0 -239 45q-111 45 -178 119q-72 78 -109 178q-37 102 -37 217zM358 664h433q-4 23 -21 63q-12 31 -35 53q-27 27 -59 37q-43 14 -88 14q-49 0 -96 -14q-37 -12 -66 -37 q-29 -27 -43 -53q-17 -32 -25 -63zM201 1176l272 325h240l274 -325h-245l-148 153l-145 -153h-248z" />
<glyph unicode="&#xeb;" horiz-adv-x="1185" d="M51 532q0 115 39 213q37 96 113 175q74 78 172 118q100 43 221 43q119 0 217 -41q92 -39 160 -112q63 -70 98 -168q37 -102 39 -207q4 -33 4 -49q0 -35 -2 -51h-764l4 -31q14 -51 37 -80q29 -35 64 -55q41 -23 79 -35q43 -12 89 -12t86 6q53 8 77.5 14t73.5 23 q37 12 74 26l110 -205q-80 -47 -104 -59q-49 -27 -96 -41q-66 -20 -103 -24q-55 -6 -125 -7q-131 0 -239 45q-111 45 -178 119q-72 78 -109 178q-37 102 -37 217zM358 664h433q-4 23 -21 63q-12 31 -35 53q-27 27 -59 37q-43 14 -88 14q-49 0 -96 -14q-37 -12 -66 -37 q-29 -27 -43 -53q-17 -32 -25 -63zM176 1343q0 31 14 70q12 33 37 57q20 20 56 37q31 14 71 15q39 0 68 -15q37 -18 55 -37q25 -25 39 -57q14 -31 14 -69.5t-14 -69.5q-14 -33 -39 -57q-18 -18 -55 -37q-29 -14 -68 -15q-41 0 -71 15q-35 16 -56 37q-25 25 -37 57 q-14 38 -14 69zM655 1343q0 39 15 70q16 37 36.5 57.5t57.5 36.5q31 14 69.5 14.5t67.5 -14.5q41 -20 57 -37q20 -20 37 -57q14 -31 14.5 -69.5t-14.5 -69.5q-16 -37 -37 -57q-16 -16 -57 -37q-29 -14 -67.5 -14.5t-69.5 14.5q-37 16 -57.5 36.5t-36.5 57.5q-15 30 -15 69z " />
<glyph unicode="&#xec;" horiz-adv-x="788" d="M80 1036h467v-762h141v-274h-606v274h156v488h-158v274zM55 1464v25h326l196 -311h-229z" />
<glyph unicode="&#xed;" horiz-adv-x="788" d="M125 1178l215 311h326v-25l-306 -286h-235zM80 1036h467v-762h141v-274h-606v274h156v488h-158v274z" />
<glyph unicode="&#xee;" horiz-adv-x="788" d="M2 1176l272 325h240l274 -325h-245l-148 153l-145 -153h-248zM80 1036h467v-762h141v-274h-606v274h156v488h-158v274z" />
<glyph unicode="&#xef;" horiz-adv-x="788" d="M-21 1343q0 31 14 70q12 33 37 57q20 20 56 37q31 14 71 15q39 0 68 -15q37 -18 55 -37q25 -25 39 -57q14 -31 14 -69.5t-14 -69.5q-14 -33 -39 -57q-18 -18 -55 -37q-29 -14 -68 -15q-41 0 -71 15q-35 16 -56 37q-25 25 -37 57q-14 38 -14 69zM458 1343q0 39 15 70 q16 37 36.5 57.5t57.5 36.5q31 14 69.5 14.5t67.5 -14.5q41 -20 57 -37q20 -20 37 -57q14 -31 14.5 -69.5t-14.5 -69.5q-16 -37 -37 -57q-16 -16 -57 -37q-29 -14 -67.5 -14.5t-69.5 14.5q-37 16 -57.5 36.5t-36.5 57.5q-15 30 -15 69zM80 1036h467v-762h141v-274h-606v274 h156v488h-158v274z" />
<glyph unicode="&#xf0;" horiz-adv-x="1249" d="M106 512q0 88 31 168t86.5 141.5t128.5 104.5q76 45 160 59q14 4 47 8h53l-65 115l-219 -53l-64 268l142 35l-101 176h350l58 -104l209 51l63 -269l-135 -32l180 -324l45 -86q35 -70 41 -84q16 -39 27 -88q10 -51 10 -96q0 -109 -41 -197q-43 -90 -113 -158 q-63 -61 -168 -104q-92 -39 -200 -39q-113 0 -205 39q-96 41 -166 106.5t-113 159.5q-41 88 -41 203zM403 504q0 -49 20.5 -88t51.5 -64q29 -25 74 -41q37 -14 82 -14q53 0 100 20q41 18 70 50q29 33 41 67q14 43 14 72q0 53 -16 88q-18 41 -47 65q-31 27 -70 39 q-40 12 -86 13q-49 0 -90 -15q-47 -16 -76 -43q-31 -29 -49 -63q-19 -37 -19 -86z" />
<glyph unicode="&#xf1;" horiz-adv-x="1458" d="M80 0v274h151v488h-149v274h473v-92q61 49 145 82q74 29 168 29q187 0 289 -105q100 -102 100 -305v-371h148v-274h-473v596q0 90 -45 137q-46 49 -123 49q-49 0 -105 -22q-57 -23 -104 -86v-400h170v-274h-645zM291 1264q16 57 47 94q34 40 74 67q41 29 86 41 q43 12 78 13q45 0 82 -15q45 -16 76 -32l73 -31q35 -14 70 -15q43 0 74 15q35 16 59 53l158 -70q-14 -43 -43 -84q-27 -39 -64 -69.5t-78 -44.5q-45 -16 -90 -17q-51 0 -94 13q-20 6 -80 30l-73 31q-35 14 -76 14q-45 0 -76 -18q-25 -14 -51 -45z" />
<glyph unicode="&#xf2;" d="M72 522q0 111 41 211.5t114.5 174t173.5 116.5q101 43 222 43q123 0 223 -43t174 -117q70 -70 113 -174q41 -100 41 -211q0 -117 -39 -213q-43 -104 -113 -174q-74 -74 -174 -117q-102 -43 -225 -43t-226 43q-104 45 -174 117q-74 76 -112 174q-39 96 -39 213zM371 522 q0 -61 20 -108q22 -49 55 -86q29 -31 80 -56q43 -20 97 -20q47 0 98 20q46 18 80 56q37 41 53 84q18 49 18 110q0 63 -18 112.5t-53 84.5t-80 53q-46 18 -98 19q-49 0 -97 -19q-45 -18 -80 -53q-33 -33 -55 -84q-20 -47 -20 -113zM361 1464v25h326l196 -311h-229z" />
<glyph unicode="&#xf3;" d="M72 522q0 111 41 211.5t114.5 174t173.5 116.5q101 43 222 43q123 0 223 -43t174 -117q70 -70 113 -174q41 -100 41 -211q0 -117 -39 -213q-43 -104 -113 -174q-74 -74 -174 -117q-102 -43 -225 -43t-226 43q-104 45 -174 117q-74 76 -112 174q-39 96 -39 213zM371 522 q0 -61 20 -108q22 -49 55 -86q29 -31 80 -56q43 -20 97 -20q47 0 98 20q46 18 80 56q37 41 53 84q18 49 18 110q0 63 -18 112.5t-53 84.5t-80 53q-46 18 -98 19q-49 0 -97 -19q-45 -18 -80 -53q-33 -33 -55 -84q-20 -47 -20 -113zM352 1178l215 311h326v-25l-306 -286h-235z " />
<glyph unicode="&#xf4;" d="M72 522q0 111 41 211.5t114.5 174t173.5 116.5q101 43 222 43q123 0 223 -43t174 -117q70 -70 113 -174q41 -100 41 -211q0 -117 -39 -213q-43 -104 -113 -174q-74 -74 -174 -117q-102 -43 -225 -43t-226 43q-104 45 -174 117q-74 76 -112 174q-39 96 -39 213zM371 522 q0 -61 20 -108q22 -49 55 -86q29 -31 80 -56q43 -20 97 -20q47 0 98 20q46 18 80 56q37 41 53 84q18 49 18 110q0 63 -18 112.5t-53 84.5t-80 53q-46 18 -98 19q-49 0 -97 -19q-45 -18 -80 -53q-33 -33 -55 -84q-20 -47 -20 -113zM229 1176l272 325h240l274 -325h-245 l-148 153l-145 -153h-248z" />
<glyph unicode="&#xf5;" d="M72 522q0 111 41 211.5t114.5 174t173.5 116.5q101 43 222 43q123 0 223 -43t174 -117q70 -70 113 -174q41 -100 41 -211q0 -117 -39 -213q-43 -104 -113 -174q-74 -74 -174 -117q-102 -43 -225 -43t-226 43q-104 45 -174 117q-74 76 -112 174q-39 96 -39 213zM371 522 q0 -61 20 -108q22 -49 55 -86q29 -31 80 -56q43 -20 97 -20q47 0 98 20q46 18 80 56q37 41 53 84q18 49 18 110q0 63 -18 112.5t-53 84.5t-80 53q-46 18 -98 19q-49 0 -97 -19q-45 -18 -80 -53q-33 -33 -55 -84q-20 -47 -20 -113zM184 1264q16 57 47 94q34 40 74 67 q41 29 86 41q43 12 78 13q45 0 82 -15q45 -16 76 -32l73 -31q35 -14 70 -15q43 0 74 15q35 16 59 53l158 -70q-14 -43 -43 -84q-27 -39 -64 -69.5t-78 -44.5q-45 -16 -90 -17q-51 0 -94 13q-20 6 -80 30l-73 31q-35 14 -76 14q-45 0 -76 -18q-25 -14 -51 -45z" />
<glyph unicode="&#xf6;" d="M72 522q0 111 41 211.5t114.5 174t173.5 116.5q101 43 222 43q123 0 223 -43t174 -117q70 -70 113 -174q41 -100 41 -211q0 -117 -39 -213q-43 -104 -113 -174q-74 -74 -174 -117q-102 -43 -225 -43t-226 43q-104 45 -174 117q-74 76 -112 174q-39 96 -39 213zM371 522 q0 -61 20 -108q22 -49 55 -86q29 -31 80 -56q43 -20 97 -20q47 0 98 20q46 18 80 56q37 41 53 84q18 49 18 110q0 63 -18 112.5t-53 84.5t-80 53q-46 18 -98 19q-49 0 -97 -19q-45 -18 -80 -53q-33 -33 -55 -84q-20 -47 -20 -113zM205 1343q0 31 14 70q12 33 37 57 q20 20 56 37q31 14 71 15q39 0 68 -15q37 -18 55 -37q25 -25 39 -57q14 -31 14 -69.5t-14 -69.5q-14 -33 -39 -57q-18 -18 -55 -37q-29 -14 -68 -15q-41 0 -71 15q-35 16 -56 37q-25 25 -37 57q-14 38 -14 69zM684 1343q0 39 15 70q16 37 36.5 57.5t57.5 36.5 q31 14 69.5 14.5t67.5 -14.5q41 -20 57 -37q20 -20 37 -57q14 -31 14.5 -69.5t-14.5 -69.5q-16 -37 -37 -57q-16 -16 -57 -37q-29 -14 -67.5 -14.5t-69.5 14.5q-37 16 -57.5 36.5t-36.5 57.5q-15 30 -15 69z" />
<glyph unicode="&#xf7;" horiz-adv-x="1269" d="M51 393v275h1127v-275h-1127zM397 145q0 31 15 70q12 33 37 57q20 20 57 37q31 14 69.5 14.5t67.5 -14.5q41 -20 57 -37q20 -20 37 -57q14 -31 14.5 -70t-14.5 -69q-16 -37 -37 -58q-16 -16 -57 -36q-29 -14 -67.5 -14.5t-69.5 14.5q-37 16 -57 36q-25 25 -37 58 q-15 38 -15 69zM397 907q0 31 15 70q10 29 37 55q23 25 57 39q31 14 69.5 14t67.5 -14q37 -18 57.5 -38.5t36.5 -55.5q14 -31 14.5 -70t-14.5 -69q-16 -37 -37 -58q-16 -16 -57 -37q-29 -14 -67.5 -14t-69.5 14q-37 16 -57 37q-25 25 -37 58q-15 38 -15 69z" />
<glyph unicode="&#xf8;" horiz-adv-x="1193" d="M31 -61l164 217q-65 74 -99 166q-35 94 -35 200q0 111 41 211.5t115 174t174 116.5q101 43 221 43q68 0 127 -12q57 -12 113 -37l115 149h256l-205 -270q70 -76 108 -170q37 -88 37 -204.5t-39 -213.5q-43 -104 -112 -174q-74 -74 -174.5 -117t-225.5 -43q-74 0 -133 15 q-68 16 -119 39l-67 -90h-262zM360 522q0 -68 25 -119l289 381q-25 6 -62 7q-51 0 -96 -18.5t-80 -53.5q-33 -33 -55 -84q-21 -47 -21 -113zM539 262q31 -10 73 -10q47 0 99 20q46 18 80 56q37 41 53 84q18 49 18 110q0 72 -28 133z" />
<glyph unicode="&#xf9;" horiz-adv-x="1409" d="M59 762v274h459v-610q0 -102 53 -156q51 -51 138 -51q59 0 108 37q51 39 72 100v406h-166v274h489v-762h125v-274h-438v88q-51 -47 -125 -74q-76 -27 -164 -26.5t-161 26.5q-76 27 -132 82q-57 57 -89.5 137t-32.5 193v336h-136zM444 1464v25h326l196 -311h-229z" />
<glyph unicode="&#xfa;" horiz-adv-x="1409" d="M59 762v274h459v-610q0 -102 53 -156q51 -51 138 -51q59 0 108 37q51 39 72 100v406h-166v274h489v-762h125v-274h-438v88q-51 -47 -125 -74q-76 -27 -164 -26.5t-161 26.5q-76 27 -132 82q-57 57 -89.5 137t-32.5 193v336h-136zM434 1178l215 311h326v-25l-306 -286 h-235z" />
<glyph unicode="&#xfb;" horiz-adv-x="1409" d="M59 762v274h459v-610q0 -102 53 -156q51 -51 138 -51q59 0 108 37q51 39 72 100v406h-166v274h489v-762h125v-274h-438v88q-51 -47 -125 -74q-76 -27 -164 -26.5t-161 26.5q-76 27 -132 82q-57 57 -89.5 137t-32.5 193v336h-136zM311 1176l272 325h240l274 -325h-245 l-148 153l-145 -153h-248z" />
<glyph unicode="&#xfc;" horiz-adv-x="1409" d="M59 762v274h459v-610q0 -102 53 -156q51 -51 138 -51q59 0 108 37q51 39 72 100v406h-166v274h489v-762h125v-274h-438v88q-51 -47 -125 -74q-76 -27 -164 -26.5t-161 26.5q-76 27 -132 82q-57 57 -89.5 137t-32.5 193v336h-136zM289 1343q0 31 14 70q12 33 37 57 q20 20 56 37q31 14 71 15q39 0 68 -15q37 -18 55 -37q25 -25 39 -57q14 -31 14 -69.5t-14 -69.5q-14 -33 -39 -57q-18 -18 -55 -37q-29 -14 -68 -15q-41 0 -71 15q-35 16 -56 37q-25 25 -37 57q-14 38 -14 69zM768 1343q0 39 15 70q16 37 36.5 57.5t57.5 36.5 q31 14 69.5 14.5t67.5 -14.5q41 -20 57 -37q20 -20 37 -57q14 -31 14.5 -69.5t-14.5 -69.5q-16 -37 -37 -57q-16 -16 -57 -37q-29 -14 -67.5 -14.5t-69.5 14.5q-37 16 -57.5 36.5t-36.5 57.5q-15 30 -15 69z" />
<glyph unicode="&#xfd;" horiz-adv-x="1239" d="M51 762v274h508v-274h-80l150 -387l151 387h-88v274h508v-274h-113l-401 -959h178v-274h-643v274h180l78 197l-323 762h-105zM350 1178l215 311h326v-25l-306 -286h-235z" />
<glyph unicode="&#xfe;" horiz-adv-x="1196" d="M29 -197h143v1477h-143v276h450v-538q57 29 109 43q59 16 108 16q119 0 219 -43q92 -39 172 -119q70 -70 113 -174q41 -100 41 -211q0 -117 -39 -213q-41 -102 -110 -174q-70 -74 -170 -116q-98 -43 -215 -43q-121 0 -228 47v-228h226v-274h-676v274zM479 371 q27 -43 86 -78q49 -29 119 -29q49 0 96 19q45 18 82 55q29 29 53 84q20 47 20.5 106.5t-20.5 106.5q-23 51 -53 82q-33 33 -80 51q-45 18 -96 18q-63 0 -116.5 -28.5t-90.5 -79.5v-307z" />
<glyph unicode="&#xff;" horiz-adv-x="1239" d="M51 762v274h508v-274h-80l150 -387l151 387h-88v274h508v-274h-113l-401 -959h178v-274h-643v274h180l78 197l-323 762h-105zM203 1343q0 31 14 70q12 33 37 57q20 20 56 37q31 14 71 15q39 0 68 -15q37 -18 55 -37q25 -25 39 -57q14 -31 14 -69.5t-14 -69.5 q-14 -33 -39 -57q-18 -18 -55 -37q-29 -14 -68 -15q-41 0 -71 15q-35 16 -56 37q-25 25 -37 57q-14 38 -14 69zM682 1343q0 39 15 70q16 37 36.5 57.5t57.5 36.5q31 14 69.5 14.5t67.5 -14.5q41 -20 57 -37q20 -20 37 -57q14 -31 14.5 -69.5t-14.5 -69.5q-16 -37 -37 -57 q-16 -16 -57 -37q-29 -14 -67.5 -14.5t-69.5 14.5q-37 16 -57.5 36.5t-36.5 57.5q-15 30 -15 69z" />
<glyph unicode="&#x131;" horiz-adv-x="788" d="M80 1036h467v-762h141v-274h-606v274h156v488h-158v274z" />
<glyph unicode="&#x152;" horiz-adv-x="2998" d="M1733 0v274h159v940h-159v302h1206v-517h-326v215h-389v-299h301v-290h-301v-351h389v269h326v-543h-1206zM66 758q0 98 26 209q23 92 74 188t113 160q72 76 147 123q78 49 176 77.5t197 28.5q100 0 198.5 -28.5t176.5 -77.5q76 -47 147 -123q61 -63 112.5 -159.5 t73.5 -188.5q27 -111 27 -209.5t-27 -208.5q-23 -88 -73 -187q-51 -96 -113 -159q-72 -76 -147 -123q-84 -53 -176.5 -80t-198.5 -27q-104 0 -196.5 27t-176.5 80q-76 47 -147 123q-61 63 -113 159q-51 98 -74 187q-26 111 -26 209zM406 758q0 -96 30 -183q33 -90 80 -149 q51 -63 125 -102q72 -37 158 -37t159 37q70 35 125 102q53 66 80 149q29 90 29 182.5t-29 182.5q-27 84 -82 152q-51 63 -125 102q-72 37 -157.5 37t-157.5 -37q-74 -39 -125 -102q-45 -57 -80 -152q-30 -86 -30 -182z" />
<glyph unicode="&#x153;" horiz-adv-x="2430" d="M1296 532q0 115 39 213q37 96 113 175q74 78 172 118q100 43 221 43q119 0 217 -41q92 -39 160 -112q63 -70 98 -168q37 -102 39 -207q4 -33 4 -49q0 -35 -2 -51h-764l4 -31q14 -51 37 -80q29 -35 64 -55q41 -23 79 -35q43 -12 89 -12t86 6q53 8 77.5 14t73.5 23 q37 12 74 26l110 -205q-80 -47 -104 -59q-49 -27 -96 -41q-66 -20 -103 -24q-55 -6 -125 -7q-131 0 -239 45q-111 45 -178 119q-72 78 -109 178q-37 102 -37 217zM1603 664h433q-4 23 -21 63q-12 31 -35 53q-27 27 -59 37q-43 14 -88 14q-49 0 -96 -14q-37 -12 -66 -37 q-29 -27 -43 -53q-17 -32 -25 -63zM72 522q0 111 41 211.5t114.5 174t173.5 116.5q101 43 222 43q123 0 223 -43t174 -117q70 -70 113 -174q41 -100 41 -211q0 -117 -39 -213q-43 -104 -113 -174q-74 -74 -174 -117q-102 -43 -225 -43t-226 43q-104 45 -174 117 q-74 76 -112 174q-39 96 -39 213zM371 522q0 -61 20 -108q22 -49 55 -86q29 -31 80 -56q43 -20 97 -20q47 0 98 20q46 18 80 56q37 41 53 84q18 49 18 110q0 63 -18 112.5t-53 84.5t-80 53q-46 18 -98 19q-49 0 -97 -19q-45 -18 -80 -53q-33 -33 -55 -84q-20 -47 -20 -113z " />
<glyph unicode="&#x178;" horiz-adv-x="1536" d="M47 1241v275h649v-275h-127l203 -348l215 348h-145v275h649v-275h-113l-450 -612v-355h184v-274h-676v274h168v359l-424 608h-133zM350 1822q0 31 14 70q12 33 37 57q20 20 56 37q31 14 71 15q39 0 68 -15q37 -18 55 -37q25 -25 39 -57q14 -31 14 -69.5t-14 -69.5 q-14 -33 -39 -57q-18 -18 -55 -37q-29 -14 -68 -15q-41 0 -71 15q-35 16 -56 37q-25 25 -37 57q-14 38 -14 69zM829 1822q0 39 15 70q16 37 36.5 57.5t57.5 36.5q31 14 69.5 14.5t67.5 -14.5q41 -20 57 -37q20 -20 37 -57q14 -31 14.5 -69.5t-14.5 -69.5q-16 -37 -37 -57 q-16 -16 -57 -37q-29 -14 -67.5 -14.5t-69.5 14.5q-37 16 -57.5 36.5t-36.5 57.5q-15 30 -15 69z" />
<glyph unicode="&#x2c6;" horiz-adv-x="825" d="M86 1176l272 325h240l274 -325h-245l-148 153l-145 -153h-248z" />
<glyph unicode="&#x2da;" horiz-adv-x="1198" d="M606 1546q65 0 123 -24q57 -25 102 -70q43 -43 68 -100q25 -58 25 -123t-25 -123q-25 -59 -68 -102t-102 -68q-58 -25 -123 -25t-123 25q-57 25 -100 68q-45 45 -70 102q-25 58 -24 123q0 65 24 123q23 53 70 100t100 70q58 24 123 24zM481 1229q0 -25 11 -49 q8 -20 26.5 -39t38.5 -27q25 -10 49.5 -10t48.5 10q27 10 39 27q16 20 25 39q10 25 10 49t-10 49t-25 39q-18 18 -39 26q-18 8 -49 8.5t-49 -8.5q-14 -6 -39 -26q-16 -12 -26 -39q-11 -24 -11 -49z" />
<glyph unicode="&#x2dc;" horiz-adv-x="901" d="M10 1264q16 57 47 94q34 40 74 67q41 29 86 41q43 12 78 13q45 0 82 -15q45 -16 76 -32l73 -31q35 -14 70 -15q43 0 74 15q35 16 59 53l158 -70q-14 -43 -43 -84q-27 -39 -64 -69.5t-78 -44.5q-45 -16 -90 -17q-51 0 -94 13q-20 6 -80 30l-73 31q-35 14 -76 14 q-45 0 -76 -18q-25 -14 -51 -45z" />
<glyph unicode="&#x2000;" horiz-adv-x="1011" />
<glyph unicode="&#x2001;" horiz-adv-x="2025" />
<glyph unicode="&#x2002;" horiz-adv-x="1011" />
<glyph unicode="&#x2003;" horiz-adv-x="2025" />
<glyph unicode="&#x2004;" horiz-adv-x="673" />
<glyph unicode="&#x2005;" horiz-adv-x="505" />
<glyph unicode="&#x2006;" horiz-adv-x="335" />
<glyph unicode="&#x2007;" horiz-adv-x="335" />
<glyph unicode="&#x2008;" horiz-adv-x="251" />
<glyph unicode="&#x2009;" horiz-adv-x="403" />
<glyph unicode="&#x200a;" horiz-adv-x="110" />
<glyph unicode="&#x2010;" horiz-adv-x="768" d="M61 449v274h627v-274h-627z" />
<glyph unicode="&#x2011;" horiz-adv-x="768" d="M61 449v274h627v-274h-627z" />
<glyph unicode="&#x2012;" horiz-adv-x="768" d="M61 449v274h627v-274h-627z" />
<glyph unicode="&#x2013;" horiz-adv-x="1228" d="M102 459v274h1024v-274h-1024z" />
<glyph unicode="&#x2014;" horiz-adv-x="1841" d="M0 459v274h1843v-274h-1843z" />
<glyph unicode="&#x2018;" horiz-adv-x="528" d="M20 1110l285 541l205 -78l-184 -569z" />
<glyph unicode="&#x2019;" horiz-adv-x="530" d="M20 1065l185 569l305 -106l-285 -541z" />
<glyph unicode="&#x201c;" horiz-adv-x="937" d="M-31 1106l305 557l222 -92l-242 -572zM459 1096l278 561l221 -84l-215 -584z" />
<glyph unicode="&#x201d;" horiz-adv-x="980" d="M-6 1079l215 584l285 -107l-279 -561zM457 1081l241 572l285 -107l-305 -557z" />
<glyph unicode="&#x201e;" horiz-adv-x="980" d="M-6 -307l215 583l285 -106l-279 -561zM457 -305l241 571l285 -106l-305 -557z" />
<glyph unicode="&#x2022;" horiz-adv-x="1024" d="M180 778.5q0 69.5 27 128.5q29 66 72 105q53 49 104 69q68 27 129 27t127 -27q55 -23 106 -69q45 -41 70 -105q27 -68 27 -129t-27 -129q-23 -57 -70 -104q-43 -43 -106 -72q-59 -27 -127 -27q-70 0 -129 27t-104.5 72t-72 104.5t-26.5 129z" />
<glyph unicode="&#x2026;" horiz-adv-x="1314" d="M31 143q0 41 14 70q16 31 41 53q31 27 59 37q39 14 72 14t72 -14q33 -12 61 -37q25 -23 41 -53q16 -33 17 -70q0 -35 -17 -67q-14 -29 -41 -56q-16 -16 -61 -36q-31 -14 -72 -14.5t-72 14.5q-41 18 -59 36q-27 27 -41 55.5t-14 67.5zM469 143q0 41 14 70q16 31 41 53 q31 27 60 37q39 14 71.5 14t71.5 -14q27 -10 61 -37q27 -20 43 -53q14 -29 15 -70q0 -39 -15 -67q-15 -31 -43 -56q-20 -18 -61 -36q-31 -14 -72 -14.5t-71 14.5q-41 18 -60 36q-27 27 -41 55.5t-14 67.5zM907 143q0 41 15 70q16 35 39 53q29 25 61 37q39 14 71.5 14 t71.5 -14q27 -10 62 -37q23 -18 41 -53q16 -33 16 -70q0 -35 -16 -67q-16 -35 -41 -56q-20 -18 -62 -36q-31 -14 -71.5 -14.5t-71.5 14.5q-45 20 -61 36q-23 23 -39 56q-15 28 -15 67z" />
<glyph unicode="&#x202f;" horiz-adv-x="403" />
<glyph unicode="&#x2039;" horiz-adv-x="595" d="M82 594v74l260 368h223l-211 -405l213 -408h-229z" />
<glyph unicode="&#x203a;" horiz-adv-x="593" d="M31 223l213 408l-211 405h223l260 -368v-74l-256 -371h-229z" />
<glyph unicode="&#x2044;" horiz-adv-x="1198" d="M1042 1577h256l-1245 -1638h-262z" />
<glyph unicode="&#x205f;" horiz-adv-x="505" />
<glyph unicode="&#x2082;" horiz-adv-x="720" d="M86 190l270 201q14 12 33 31q8 8 16.5 24.5t8.5 18.5v16q0 16 -12.5 28.5t-39.5 12.5q-16 0 -32 -8q-6 -2 -17 -18q-6 -8 -6 -21q0 -4 -1 -9t-1 -7h-225q0 68 22 123q22 52 62 86q45 37 94 51q59 16 119 16q55 0 100 -14q51 -16 90 -43q41 -29 66 -72q27 -47 26 -104 q0 -29 -6 -53.5t-18 -42.5q-16 -25 -29 -37q-8 -8 -37 -33l-159 -133h249v-205h-573v192z" />
<glyph unicode="&#x2084;" horiz-adv-x="1077" d="M213 348l281 416h215l-283 -422h170v166h201v-166h104v-160h-104v-182h-201v182h-381z" />
<glyph unicode="&#x2122;" horiz-adv-x="3774" d="M1543 0v274h141v967h-141v275h624l447 -1094l415 1094h633v-275h-141v-967h139v-274h-567v274h104v873l-454 -1129h-281l-463 1098v-842h113v-274h-569zM20 1055v461h1379v-461h-328v196h-209v-977h160v-274h-649v274h157v977h-184v-196h-326z" />
<glyph unicode="&#xe000;" horiz-adv-x="1035" d="M0 1035h1035v-1035h-1035v1035z" />
<glyph unicode="&#xfb01;" horiz-adv-x="1603" d="M895 0v274h156v488h-156v274h465v-762h143v-274h-608zM1034 1370q0 31 14 70q10 29 37 55q25 25 58 39q31 14 69 14q41 0 70 -14q33 -16 55 -39q23 -20 37 -55q14 -31 14 -70t-14 -70q-16 -37 -37 -57q-18 -18 -55 -37q-29 -14 -70 -14q-39 0 -69 14q-37 16 -58 37 q-25 25 -37 57q-14 39 -14 70zM76 774v262h157v172q0 92 31 160t86 117q51 45 123 69q71 25 148 25q61 0 102 -8q39 -8 80 -23q35 -12 57 -26q4 -2 37 -29l-115 -211q-16 14 -53 27q-31 10 -70 10q-29 0 -51 -8t-41 -27q-16 -16 -26.5 -43t-10.5 -59v-146h189v-262h-189 v-500h191v-274h-643v274h155v500h-157z" />
<glyph unicode="&#xfb02;" horiz-adv-x="1593" d="M874 0v274h160v1008h-160v274h467v-1282h160v-274h-627zM76 774v262h157v172q0 92 31 160t86 117q51 45 123 69q71 25 148 25q61 0 102 -8q39 -8 80 -23q35 -12 57 -26q4 -2 37 -29l-115 -211q-16 14 -53 27q-31 10 -70 10q-29 0 -51 -8t-41 -27q-16 -16 -26.5 -43 t-10.5 -59v-146h189v-262h-189v-500h191v-274h-643v274h155v500h-157z" />
<glyph unicode="&#xfb03;" horiz-adv-x="2418" d="M1710 0v274h156v488h-156v274h465v-762h143v-274h-608zM1849 1370q0 31 14 70q10 29 37 55q25 25 58 39q31 14 69 14q41 0 70 -14q33 -16 55 -39q23 -20 37 -55q14 -31 14 -70t-14 -70q-16 -37 -37 -57q-18 -18 -55 -37q-29 -14 -70 -14q-39 0 -69 14q-37 16 -58 37 q-25 25 -37 57q-14 39 -14 70zM891 774v262h157v172q0 92 31 160t86 117q51 45 123 69q71 25 148 25q61 0 102 -8q39 -8 80 -23q35 -12 57 -26q4 -2 37 -29l-115 -211q-16 14 -53 27q-31 10 -70 10q-29 0 -51 -8t-41 -27q-16 -16 -26.5 -43t-10.5 -59v-146h189v-262h-189 v-500h191v-274h-643v274h155v500h-157zM76 774v262h157v172q0 92 31 160t86 117q51 45 123 69q71 25 148 25q61 0 102 -8q39 -8 80 -23q35 -12 57 -26q4 -2 37 -29l-115 -211q-16 14 -53 27q-31 10 -70 10q-29 0 -51 -8t-41 -27q-16 -16 -26.5 -43t-10.5 -59v-146h189v-262 h-189v-500h191v-274h-643v274h155v500h-157z" />
<glyph unicode="&#xfb04;" horiz-adv-x="2408" d="M1689 0v274h160v1008h-160v274h467v-1282h160v-274h-627zM891 774v262h157v172q0 92 31 160t86 117q51 45 123 69q71 25 148 25q61 0 102 -8q39 -8 80 -23q35 -12 57 -26q4 -2 37 -29l-115 -211q-16 14 -53 27q-31 10 -70 10q-29 0 -51 -8t-41 -27q-16 -16 -26.5 -43 t-10.5 -59v-146h189v-262h-189v-500h191v-274h-643v274h155v500h-157zM76 774v262h157v172q0 92 31 160t86 117q51 45 123 69q71 25 148 25q61 0 102 -8q39 -8 80 -23q35 -12 57 -26q4 -2 37 -29l-115 -211q-16 14 -53 27q-31 10 -70 10q-29 0 -51 -8t-41 -27 q-16 -16 -26.5 -43t-10.5 -59v-146h189v-262h-189v-500h191v-274h-643v274h155v500h-157z" />
</font>
</defs>
</svg>
